####
#
# OBJ File Generated by Meshlab
#
####
# Object vehicle-speedster.obj
#
# Vertices: 648
# Faces: 1256
#
####
vn 0.3826835 0.9238795 0.0000000
v 0.1000000 0.3125000 0.1875000 1.000000 0.000000 0.015686
vn 0.2971087 0.7172836 0.6302624
v 0.1000000 0.3125000 0.4375000 1.000000 1.000000 1.000000
vn -0.3826835 0.9238796 0.0000000
v -0.1000000 0.3125000 0.1875000 1.000000 0.078431 0.094118
vn -0.2971087 0.7172836 0.6302624
v -0.1000000 0.3125000 0.4375000 1.000000 1.000000 1.000000
vn 0.6057287 -0.4183092 0.6768384
v 0.1250000 0.1875000 0.4375000 1.000000 1.000000 1.000000
vn 0.4660974 -0.7913297 0.3956648
v 0.1250000 0.0625000 0.1875000 1.000000 1.000000 1.000000
vn -0.6057288 -0.4183092 0.6768384
v -0.1250000 0.1875000 0.4375000 1.000000 1.000000 1.000000
vn -0.4660974 -0.7913297 0.3956648
v -0.1250000 0.0625000 0.1875000 1.000000 1.000000 1.000000
vn 0.7172837 0.2971085 0.6302624
v 0.1250000 0.2875000 0.4375000 1.000000 1.000000 1.000000
vn -0.7172836 0.2971086 0.6302625
v -0.1250000 0.2875000 0.4375000 1.000000 1.000000 1.000000
vn -0.9238796 0.3826834 0.0000000
v -0.1250000 0.2875000 0.1875000 1.000000 0.000000 0.015686
vn 0.9238796 0.3826834 0.0000000
v 0.1250000 0.2875000 0.1875000 1.000000 1.000000 1.000000
vn 0.3577744 0.9055980 0.2277931
v 0.1000000 0.3125000 -0.0625000 1.000000 1.000000 1.000000
vn -0.3577744 0.9055980 0.2277931
v -0.1000000 0.3125000 -0.0625000 1.000000 0.000000 0.015686
vn 0.5547002 -0.8320503 0.0000000
v 0.1250000 0.0625000 -0.0625000 1.000000 1.000000 1.000000
vn -0.5547002 -0.8320503 0.0000000
v -0.1250000 0.0625000 -0.0625000 1.000000 1.000000 1.000000
vn 0.8647153 0.4062017 0.2954109
v 0.1250000 0.2875000 -0.0625000 1.000000 1.000000 1.000000
vn -0.8647153 0.4062018 0.2954109
v -0.1250000 0.2875000 -0.0625000 1.000000 0.000000 0.015686
vn 0.6302625 0.7172836 -0.2971087
v 0.2000000 0.3125000 -0.0375000 1.000000 1.000000 1.000000
vn 0.5773503 0.5773503 0.5773502
v 0.2000000 0.3125000 0.0125000 1.000000 1.000000 1.000000
vn -0.6302625 0.7172835 -0.2971086
v 0.1250000 0.3125000 -0.0375000 1.000000 0.137255 0.152941
vn -0.5773503 0.5773503 0.5773503
v 0.1250000 0.3125000 0.0125000 1.000000 1.000000 1.000000
vn 0.5773503 -0.5773503 0.5773503
v 0.2000000 0.2375000 0.0125000 1.000000 1.000000 1.000000
vn 0.6302626 -0.7172836 -0.2971085
v 0.2000000 0.2375000 -0.0375000 1.000000 1.000000 1.000000
vn -0.5773503 -0.5773503 0.5773502
v 0.1250000 0.2375000 0.0125000 1.000000 1.000000 1.000000
vn -0.6302626 -0.7172835 -0.2971085
v 0.1250000 0.2375000 -0.0375000 1.000000 1.000000 1.000000
vn -0.6302626 0.2971086 -0.7172836
v 0.1250000 0.2875000 -0.0625000 1.000000 0.827451 0.831373
vn 0.6302626 0.2971085 -0.7172836
v 0.2000000 0.2875000 -0.0625000 1.000000 1.000000 1.000000
vn -0.6302625 -0.2971087 -0.7172835
v 0.1250000 0.2625000 -0.0625000 1.000000 1.000000 1.000000
vn 0.6302625 -0.2971087 -0.7172835
v 0.2000000 0.2625000 -0.0625000 1.000000 1.000000 1.000000
vn 0.5773503 -0.5773503 -0.5773503
v 0.2500000 0.3125000 0.3125000 1.000000 1.000000 1.000000
vn 0.5773503 -0.5773503 0.5773503
v 0.2500000 0.3125000 0.4375000 1.000000 1.000000 1.000000
vn 0.6302625 0.2971086 -0.7172836
v 0.2500000 0.3500000 0.3125000 1.000000 1.000000 1.000000
vn 0.5773503 0.5773503 0.5773503
v 0.2500000 0.3750000 0.4375000 1.000000 1.000000 1.000000
vn 0.6302623 0.7172836 -0.2971088
v 0.2500000 0.3750000 0.3375000 1.000000 1.000000 1.000000
vn -0.5773503 -0.5773503 0.5773503
v -0.2500000 0.3125000 0.4375000 1.000000 1.000000 1.000000
vn -0.5773503 -0.5773503 -0.5773503
v -0.2500000 0.3125000 0.3125000 1.000000 1.000000 1.000000
vn -0.5773502 0.5773503 0.5773503
v -0.2500000 0.3750000 0.4375000 1.000000 1.000000 1.000000
vn -0.6302623 0.2971087 -0.7172836
v -0.2500000 0.3500000 0.3125000 1.000000 1.000000 1.000000
vn -0.6302625 0.7172836 -0.2971086
v -0.2500000 0.3750000 0.3375000 1.000000 1.000000 1.000000
vn 0.6302623 0.7172834 -0.2971096
v -0.1250000 0.3095492 -0.0375000 1.000000 0.686275 0.694118
vn 0.5773503 0.5773503 0.5773503
v -0.1250000 0.3095492 0.0125000 1.000000 1.000000 1.000000
vn -0.6302623 0.7172834 -0.2971095
v -0.2000000 0.3095492 -0.0375000 1.000000 1.000000 1.000000
vn -0.5773503 0.5773503 0.5773503
v -0.2000000 0.3095492 0.0125000 1.000000 1.000000 1.000000
vn 0.5773503 -0.5773503 0.5773503
v -0.1250000 0.2345491 0.0125000 1.000000 1.000000 1.000000
vn 0.6302624 -0.7172836 -0.2971086
v -0.1250000 0.2345491 -0.0375000 1.000000 1.000000 1.000000
vn -0.5773503 -0.5773503 0.5773503
v -0.2000000 0.2345491 0.0125000 1.000000 1.000000 1.000000
vn -0.6302625 -0.7172836 -0.2971087
v -0.2000000 0.2345491 -0.0375000 1.000000 1.000000 1.000000
vn -0.6302627 0.2971076 -0.7172838
v -0.2000000 0.2845491 -0.0625000 1.000000 0.800000 0.800000
vn 0.6302627 0.2971076 -0.7172838
v -0.1250000 0.2845491 -0.0625000 1.000000 1.000000 1.000000
vn -0.6302626 -0.2971085 -0.7172836
v -0.2000000 0.2595491 -0.0625000 1.000000 1.000000 1.000000
vn 0.6302626 -0.2971086 -0.7172836
v -0.1250000 0.2595491 -0.0625000 1.000000 1.000000 1.000000
vn 0.2670863 0.5645000 -0.7810280
v 0.1000000 0.1875000 -0.3125000 1.000000 1.000000 1.000000
vn -0.2670864 0.5645000 -0.7810279
v -0.1000000 0.1875000 -0.3125000 1.000000 1.000000 1.000000
vn -0.5773503 -0.5773503 -0.5773503
v -0.1250000 0.0625000 -0.3125000 1.000000 1.000000 1.000000
vn 0.5773503 -0.5773503 -0.5773503
v 0.1250000 0.0625000 -0.3125000 1.000000 1.000000 1.000000
vn -0.7036936 0.2043721 -0.6804760
v -0.1250000 0.1625000 -0.3125000 1.000000 1.000000 1.000000
vn 0.7036935 0.2043721 -0.6804760
v 0.1250000 0.1625000 -0.3125000 1.000000 1.000000 1.000000
vn 0.7071068 0.0000000 0.7071068
v 0.0535647 0.3125000 0.1875000 1.000000 1.000000 1.000000
vn -0.7071068 0.0000000 0.7071068
v -0.0714353 0.3125000 0.1875000 1.000000 1.000000 1.000000
vn 0.5773503 0.5773503 0.5773503
v 0.0535647 0.3750000 0.1875000 1.000000 1.000000 1.000000
vn -0.5773503 0.5773503 0.5773503
v -0.0714353 0.3750000 0.1875000 1.000000 1.000000 1.000000
vn 0.7172836 0.6302625 -0.2971087
v 0.0535647 0.3750000 0.0875000 1.000000 0.027451 0.043137
vn 0.9238795 0.0000000 -0.3826835
v 0.0535647 0.3125000 0.0875000 0.337255 0.337255 0.337255
vn -0.3826835 0.0000000 -0.9238796
v -0.0464353 0.3125000 0.0625000 0.239216 0.239216 0.239216
vn 0.3826834 0.0000000 -0.9238796
v 0.0285647 0.3125000 0.0625000 0.956863 0.956863 0.956863
vn -0.2971087 0.6302625 -0.7172835
v -0.0464353 0.3750000 0.0625000 1.000000 0.000000 0.015686
vn 0.2971086 0.6302625 -0.7172836
v 0.0285647 0.3750000 0.0625000 1.000000 0.000000 0.015686
vn -0.9238796 0.0000000 -0.3826833
v -0.0714353 0.3125000 0.0875000 1.000000 1.000000 1.000000
vn -0.7172836 0.6302626 -0.2971085
v -0.0714353 0.3750000 0.0875000 1.000000 1.000000 1.000000
vn 0.0000000 0.7071068 -0.7071068
v -0.1250000 0.1875000 -0.0625000 1.000000 1.000000 1.000000
vn 0.0000000 0.7071067 0.7071068
v -0.1250000 0.1875000 0.1875000 1.000000 1.000000 1.000000
vn -0.1455766 0.7318646 -0.6657190
v -0.1875000 0.1875000 -0.0625000 1.000000 1.000000 1.000000
vn -0.1455766 0.7318645 0.6657190
v -0.1875000 0.1875000 0.1875000 1.000000 1.000000 1.000000
vn -0.5773503 -0.5773503 -0.5773503
v -0.2500000 0.0625000 -0.0625000 1.000000 1.000000 1.000000
vn -0.9885476 0.1461068 -0.0377698
v -0.2500000 0.1250000 -0.0625000 1.000000 1.000000 1.000000
vn -0.5489852 0.5489852 -0.6302623
v -0.2316942 0.1691942 -0.0625000 1.000000 1.000000 1.000000
vn -0.5773503 -0.5773503 0.5773503
v -0.2500000 0.0625000 0.1875000 1.000000 1.000000 1.000000
vn -0.9885476 0.1461069 0.0377699
v -0.2500000 0.1250000 0.1875000 1.000000 1.000000 1.000000
vn -0.5489852 0.5489852 0.6302623
v -0.2316942 0.1691942 0.1875000 1.000000 1.000000 1.000000
vn 0.0000000 -0.7071068 0.7071068
v 0.1500000 0.0937500 -0.1562500 1.000000 1.000000 1.000000
vn 0.0000000 -0.7071068 -0.7071068
v 0.1500000 0.0937500 -0.2187500 1.000000 1.000000 1.000000
vn 0.0000000 -0.7071068 0.7071068
v -0.1500000 0.0937500 -0.1562500 1.000000 1.000000 1.000000
vn 0.0000000 -0.7071068 -0.7071068
v -0.1500000 0.0937500 -0.2187500 1.000000 1.000000 1.000000
vn 0.0000000 0.7071068 0.7071068
v 0.1500000 0.1562500 -0.1562500 1.000000 1.000000 1.000000
vn 0.0000000 0.7071068 0.7071068
v -0.1500000 0.1562500 -0.1562500 1.000000 1.000000 1.000000
vn 0.0000000 0.7071068 -0.7071068
v 0.1500000 0.1562500 -0.2187500 1.000000 1.000000 1.000000
vn 0.0000000 0.7071068 -0.7071068
v -0.1500000 0.1562500 -0.2187500 1.000000 1.000000 1.000000
vn 0.5773503 0.5773503 0.5773503
v 0.2500000 0.1250000 -0.3125000 1.000000 1.000000 1.000000
vn -0.5773503 0.5773503 0.5773503
v -0.2500000 0.1250000 -0.3125000 1.000000 1.000000 1.000000
vn 0.6302624 0.7172836 -0.2971087
v 0.2500000 0.1250000 -0.4125000 1.000000 1.000000 1.000000
vn -0.6302626 0.7172836 -0.2971086
v -0.2500000 0.1250000 -0.4125000 1.000000 1.000000 1.000000
vn 0.5773503 -0.5773503 -0.5773503
v 0.2500000 0.0625000 -0.4375000 1.000000 1.000000 1.000000
vn 0.5773503 -0.5773503 0.5773503
v 0.2500000 0.0625000 -0.3125000 1.000000 1.000000 1.000000
vn 0.6302624 0.2971087 -0.7172835
v 0.2500000 0.1000000 -0.4375000 1.000000 1.000000 1.000000
vn -0.5773503 -0.5773503 0.5773503
v -0.2500000 0.0625000 -0.3125000 1.000000 1.000000 1.000000
vn -0.5773503 -0.5773503 -0.5773503
v -0.2500000 0.0625000 -0.4375000 1.000000 1.000000 1.000000
vn -0.6302624 0.2971088 -0.7172836
v -0.2500000 0.1000000 -0.4375000 1.000000 1.000000 1.000000
vn 0.0000000 0.7071068 0.7071068
v 0.1250000 0.1875000 0.1875000 1.000000 1.000000 1.000000
vn 0.0000000 0.7071067 -0.7071068
v 0.1250000 0.1875000 -0.0625000 1.000000 1.000000 1.000000
vn 0.1455766 0.7318646 0.6657190
v 0.1875000 0.1875000 0.1875000 1.000000 1.000000 1.000000
vn 0.1455766 0.7318645 -0.6657190
v 0.1875000 0.1875000 -0.0625000 1.000000 1.000000 1.000000
vn 0.5773503 -0.5773503 0.5773503
v 0.2500000 0.0625000 0.1875000 1.000000 1.000000 1.000000
vn 0.9885476 0.1461069 0.0377699
v 0.2500000 0.1250000 0.1875000 1.000000 1.000000 1.000000
vn 0.5489852 0.5489852 0.6302623
v 0.2316942 0.1691942 0.1875000 1.000000 1.000000 1.000000
vn 0.5773503 -0.5773503 -0.5773503
v 0.2500000 0.0625000 -0.0625000 1.000000 1.000000 1.000000
vn 0.9885476 0.1461068 -0.0377698
v 0.2500000 0.1250000 -0.0625000 1.000000 1.000000 1.000000
vn 0.5489852 0.5489852 -0.6302623
v 0.2316942 0.1691942 -0.0625000 1.000000 1.000000 1.000000
vn 0.0000000 -0.7071068 0.7071068
v 0.1500000 0.0937500 0.3437500 1.000000 1.000000 1.000000
vn 0.0000000 -0.7071068 -0.7071068
v 0.1500000 0.0937500 0.2812500 1.000000 1.000000 1.000000
vn 0.0000000 -0.7071068 0.7071068
v -0.1500000 0.0937500 0.3437500 1.000000 1.000000 1.000000
vn 0.0000000 -0.7071068 -0.7071068
v -0.1500000 0.0937500 0.2812500 1.000000 1.000000 1.000000
vn 0.0000000 0.7071068 0.7071068
v 0.1500000 0.1562500 0.3437500 1.000000 1.000000 1.000000
vn 0.0000000 0.7071068 0.7071068
v -0.1500000 0.1562500 0.3437500 1.000000 1.000000 1.000000
vn 0.0000000 0.7071068 -0.7071068
v 0.1500000 0.1562500 0.2812500 1.000000 1.000000 1.000000
vn 0.0000000 0.7071068 -0.7071068
v -0.1500000 0.1562500 0.2812500 1.000000 1.000000 1.000000
vn 0.9133555 -0.0000000 -0.4071630
v -0.1500000 0.1250000 0.2127157 1.000000 1.000000 1.000000
vn 0.9133557 -0.1053816 -0.3932888
v -0.1500000 0.0991739 0.2161158 1.000000 1.000000 1.000000
vn 0.9133557 0.1053817 -0.3932888
v -0.1500000 0.1508261 0.2161158 1.000000 1.000000 1.000000
vn 0.9133561 0.2035810 -0.3526123
v -0.1500000 0.1748921 0.2260843 1.000000 1.000000 1.000000
vn 1.0000000 0.0000000 0.0000000
v -0.1500000 0.0751079 0.2260843 1.000000 1.000000 1.000000
vn 0.9133562 0.2879068 -0.2879065
v -0.1500000 0.1955581 0.2419419 1.000000 1.000000 1.000000
vn 0.9133559 -0.2879073 -0.2879069
v -0.1500000 0.0544419 0.2419419 1.000000 1.000000 1.000000
vn 1.0000000 0.0000000 0.0000000
v -0.1500000 0.2114157 0.2626079 1.000000 1.000000 1.000000
vn 1.0000000 0.0000000 0.0000000
v -0.1500000 0.0385843 0.2626079 1.000000 1.000000 1.000000
vn 1.0000000 0.0000000 0.0000000
v -0.1500000 0.2213842 0.2866739 1.000000 1.000000 1.000000
vn 1.0000000 0.0000000 0.0000000
v -0.1500000 0.0286158 0.2866739 1.000000 1.000000 1.000000
vn 0.9133555 0.4071630 -0.0000000
v -0.1500000 0.2247843 0.3125000 1.000000 1.000000 1.000000
vn 1.0000000 0.0000000 0.0000000
v -0.1500000 0.0252157 0.3125000 1.000000 1.000000 1.000000
vn 1.0000000 0.0000000 0.0000000
v -0.1500000 0.2213842 0.3383261 1.000000 1.000000 1.000000
vn 1.0000000 0.0000000 0.0000000
v -0.1500000 0.0286158 0.3383261 1.000000 1.000000 1.000000
vn 1.0000000 0.0000000 0.0000000
v -0.1500000 0.2114157 0.3623921 1.000000 1.000000 1.000000
vn 1.0000000 0.0000000 0.0000000
v -0.1500000 0.0385843 0.3623921 1.000000 1.000000 1.000000
vn 0.9133563 0.2879068 0.2879063
v -0.1500000 0.1955581 0.3830581 1.000000 1.000000 1.000000
vn 0.9133560 -0.2879072 0.2879066
v -0.1500000 0.0544419 0.3830581 1.000000 1.000000 1.000000
vn 1.0000000 0.0000000 0.0000000
v -0.1500000 0.0751079 0.3989157 1.000000 1.000000 1.000000
vn 0.9133561 0.2035810 0.3526125
v -0.1500000 0.1748921 0.3989157 1.000000 1.000000 1.000000
vn 0.9133558 0.1053817 0.3932886
v -0.1500000 0.1508261 0.4088842 1.000000 1.000000 1.000000
vn 0.9133558 -0.1053816 0.3932886
v -0.1500000 0.0991739 0.4088842 1.000000 1.000000 1.000000
vn 0.9133555 -0.0000000 0.4071631
v -0.1500000 0.1250000 0.4122843 1.000000 1.000000 1.000000
vn -0.8722649 -0.3457993 -0.3457987
v -0.2500000 0.1515749 0.3390749 0.000000 0.000000 0.000000
vn -0.8722658 -0.4890322 -0.0000006
v -0.2500000 0.1625825 0.3125000 0.000000 0.000000 0.000000
vn -0.9476879 -0.2257077 -0.2257074
v -0.2750000 0.1671823 0.3546823 0.000000 0.000000 0.000000
vn -0.9476881 -0.3191978 -0.0000002
v -0.2750000 0.1846548 0.3125000 0.000000 0.000000 0.000000
vn -0.8722653 0.3457984 0.3457989
v -0.2500000 0.0984251 0.2859251 0.000000 0.000000 0.000000
vn -0.8722657 0.4890323 0.0000002
v -0.2500000 0.0874175 0.3125000 0.000000 0.000000 0.000000
vn -0.9476880 0.2257074 0.2257072
v -0.2750000 0.0828177 0.2703177 0.000000 0.000000 0.000000
vn -0.9476882 0.3191977 0.0000001
v -0.2750000 0.0653452 0.3125000 0.000000 0.000000 0.000000
vn -0.9476880 -0.0000000 0.3191980
v -0.2750000 0.1250000 0.2528452 0.000000 0.000000 0.000000
vn -0.8722661 0.0000001 0.4890316
v -0.2500000 0.1250000 0.2749175 0.000000 0.000000 0.000000
vn -0.8722661 0.0000000 -0.4890316
v -0.2500000 0.1250000 0.3500825 0.000000 0.000000 0.000000
vn -0.9476880 -0.0000000 -0.3191980
v -0.2750000 0.1250000 0.3721548 0.000000 0.000000 0.000000
vn -0.9476879 0.2257074 -0.2257073
v -0.2750000 0.0828177 0.3546823 0.000000 0.000000 0.000000
vn -0.8722653 0.3457982 -0.3457989
v -0.2500000 0.0984251 0.3390749 0.000000 0.000000 0.000000
vn -0.8722651 -0.3457987 0.3457989
v -0.2500000 0.1515749 0.2859251 0.000000 0.000000 0.000000
vn -0.9476878 -0.2257077 0.2257077
v -0.2750000 0.1671823 0.2703177 0.000000 0.000000 0.000000
vn -0.9133558 -0.1053816 0.3932887
v -0.2750000 0.0991739 0.4088842 0.000000 0.000000 0.000000
vn -1.0000000 0.0000000 0.0000000
v -0.2750000 0.0751079 0.3989157 0.000000 0.000000 0.000000
vn -0.9133554 -0.0000000 0.4071632
v -0.2750000 0.1250000 0.4122843 0.000000 0.000000 0.000000
vn -0.9133559 -0.2879074 0.2879068
v -0.2750000 0.0544419 0.3830581 0.000000 0.000000 0.000000
vn -1.0000000 0.0000000 0.0000000
v -0.2750000 0.0385843 0.3623921 0.000000 0.000000 0.000000
vn -1.0000000 0.0000000 0.0000000
v -0.2750000 0.0286158 0.3383261 0.000000 0.000000 0.000000
vn -1.0000000 0.0000000 0.0000000
v -0.2750000 0.0252157 0.3125000 0.000000 0.000000 0.000000
vn -1.0000000 0.0000000 0.0000000
v -0.2750000 0.0286158 0.2866739 0.000000 0.000000 0.000000
vn -1.0000000 0.0000000 0.0000000
v -0.2750000 0.0385843 0.2626079 0.000000 0.000000 0.000000
vn -0.9133559 -0.2879074 -0.2879070
v -0.2750000 0.0544419 0.2419419 0.000000 0.000000 0.000000
vn -1.0000000 0.0000000 0.0000000
v -0.2750000 0.0751079 0.2260843 0.000000 0.000000 0.000000
vn -0.9133556 -0.1053816 -0.3932889
v -0.2750000 0.0991739 0.2161158 0.000000 0.000000 0.000000
vn -0.9133555 -0.0000000 -0.4071631
v -0.2750000 0.1250000 0.2127157 0.000000 0.000000 0.000000
vn -0.9133556 0.1053817 -0.3932889
v -0.2750000 0.1508261 0.2161158 0.000000 0.000000 0.000000
vn -0.9133560 0.2035811 -0.3526124
v -0.2750000 0.1748921 0.2260843 0.000000 0.000000 0.000000
vn -0.9133561 0.2879069 -0.2879066
v -0.2750000 0.1955581 0.2419419 0.000000 0.000000 0.000000
vn -1.0000000 0.0000000 0.0000000
v -0.2750000 0.2114157 0.2626079 0.000000 0.000000 0.000000
vn -1.0000000 0.0000000 0.0000000
v -0.2750000 0.2213842 0.2866739 0.000000 0.000000 0.000000
vn -0.9133555 0.4071632 -0.0000000
v -0.2750000 0.2247843 0.3125000 0.000000 0.000000 0.000000
vn -1.0000000 0.0000000 0.0000000
v -0.2750000 0.2213842 0.3383261 0.000000 0.000000 0.000000
vn -1.0000000 0.0000000 0.0000000
v -0.2750000 0.2114157 0.3623921 0.000000 0.000000 0.000000
vn -0.9133562 0.2879069 0.2879064
v -0.2750000 0.1955581 0.3830581 0.000000 0.000000 0.000000
vn -0.9133560 0.2035811 0.3526126
v -0.2750000 0.1748921 0.3989157 0.000000 0.000000 0.000000
vn -0.9133558 0.1053818 0.3932887
v -0.2750000 0.1508261 0.4088842 0.000000 0.000000 0.000000
vn -0.3737581 0.2400613 -0.8959216
v -0.2500000 0.1573524 0.1917593 1.000000 1.000000 1.000000
vn -0.3737586 0.4637620 -0.8032616
v -0.2500000 0.1875000 0.2042468 1.000000 1.000000 1.000000
vn -0.3737587 -0.6558601 -0.6558598
v -0.2500000 0.0366117 0.2241116 0.098039 0.098039 0.098039
vn -0.3737585 -0.8032613 -0.4637628
v -0.2500000 0.0167468 0.2500000 0.000000 0.000000 0.000000
vn -0.7101380 -0.6097360 -0.3520314
v -0.2750000 0.0385843 0.2626079 0.000000 0.000000 0.000000
vn -0.3737583 0.8959215 -0.2400614
v -0.2500000 0.2457407 0.2801476 0.317647 0.317647 0.317647
vn -0.3737580 0.9275263 -0.0000000
v -0.2500000 0.2500000 0.3125000 1.000000 1.000000 1.000000
vn -0.7101375 0.6800724 -0.1822259
v -0.2750000 0.2213842 0.2866739 0.000000 0.000000 0.000000
vn -0.3737591 0.6558600 0.6558596
v -0.2500000 0.2133884 0.4008884 0.000000 0.000000 0.000000
vn -0.3737586 0.4637620 0.8032616
v -0.2500000 0.1875000 0.4207532 0.000000 0.000000 0.000000
vn -0.7101375 0.6800724 0.1822259
v -0.2750000 0.2213842 0.3383261 0.000000 0.000000 0.000000
vn -0.3737582 0.8959215 0.2400614
v -0.2500000 0.2457407 0.3448524 1.000000 1.000000 1.000000
vn -0.7101383 0.6097357 0.3520312
v -0.2750000 0.2114157 0.3623921 0.000000 0.000000 0.000000
vn -0.3737589 0.8032617 0.4637618
v -0.2500000 0.2332532 0.3750000 0.129412 0.129412 0.129412
vn -0.3737583 -0.8959215 -0.2400616
v -0.2500000 0.0042593 0.2801476 0.000000 0.000000 0.000000
vn -0.7101378 -0.6800724 -0.1822252
v -0.2750000 0.0286158 0.2866739 0.000000 0.000000 0.000000
vn -0.3737583 -0.9275262 0.0000000
v -0.2500000 0.0000000 0.3125000 0.000000 0.000000 0.000000
vn -0.7101378 -0.7040628 0.0000000
v -0.2750000 0.0252157 0.3125000 0.000000 0.000000 0.000000
vn -0.7101386 -0.3520310 0.6097355
v -0.2750000 0.0751079 0.3989157 0.000000 0.000000 0.000000
vn -0.3737585 -0.4637622 0.8032617
v -0.2500000 0.0625000 0.4207532 0.000000 0.000000 0.000000
vn -0.3737582 -0.2400611 0.8959216
v -0.2500000 0.0926476 0.4332407 0.000000 0.000000 0.000000
vn -0.3737587 -0.6558602 0.6558597
v -0.2500000 0.0366117 0.4008884 0.000000 0.000000 0.000000
vn -0.3737588 0.8032616 -0.4637619
v -0.2500000 0.2332532 0.2500000 0.486275 0.486275 0.486275
vn -0.7101383 0.6097357 -0.3520312
v -0.2750000 0.2114157 0.2626079 0.000000 0.000000 0.000000
vn -0.3737591 0.6558599 -0.6558598
v -0.2500000 0.2133884 0.2241116 1.000000 1.000000 1.000000
vn 0.7101386 0.6097355 0.3520311
v -0.1500000 0.2114157 0.3623921 1.000000 1.000000 1.000000
vn 0.3737591 0.8032616 0.4637618
v -0.1750000 0.2332532 0.3750000 1.000000 1.000000 1.000000
vn 0.3737593 0.6558599 0.6558596
v -0.1750000 0.2133884 0.4008884 1.000000 1.000000 1.000000
vn 0.3737585 0.8959214 -0.2400614
v -0.1750000 0.2457407 0.2801476 1.000000 1.000000 1.000000
vn 0.3737581 0.9275262 -0.0000000
v -0.1750000 0.2500000 0.3125000 1.000000 1.000000 1.000000
vn 0.3737588 -0.6558601 0.6558596
v -0.1750000 0.0366117 0.4008884 1.000000 1.000000 1.000000
vn 0.7101388 -0.3520309 0.6097353
v -0.1500000 0.0751079 0.3989157 1.000000 1.000000 1.000000
vn 0.3737586 -0.4637622 0.8032616
v -0.1750000 0.0625000 0.4207532 1.000000 1.000000 1.000000
vn 0.3737583 0.2400613 -0.8959215
v -0.1750000 0.1573524 0.1917593 1.000000 1.000000 1.000000
vn 0.3737587 0.4637620 -0.8032616
v -0.1750000 0.1875000 0.2042468 1.000000 1.000000 1.000000
vn -0.3737581 -0.2400613 -0.8959216
v -0.2500000 0.0926476 0.1917593 1.000000 1.000000 1.000000
vn -0.3737581 0.2400612 0.8959216
v -0.2500000 0.1573524 0.4332407 0.000000 0.000000 0.000000
vn -0.3737582 -0.8959215 0.2400616
v -0.2500000 0.0042593 0.3448524 0.117647 0.117647 0.117647
vn -0.7101378 -0.6800724 0.1822252
v -0.2750000 0.0286158 0.3383261 0.000000 0.000000 0.000000
vn 0.3737583 -0.8959214 -0.2400616
v -0.1750000 0.0042593 0.2801476 0.000000 0.000000 0.000000
vn 0.3737586 -0.8032613 -0.4637628
v -0.1750000 0.0167468 0.2500000 0.600000 0.600000 0.600000
vn 0.3737583 -0.2400611 0.8959216
v -0.1750000 0.0926476 0.4332407 1.000000 1.000000 1.000000
vn 0.3737580 -0.0000000 0.9275263
v -0.1750000 0.1250000 0.4375000 1.000000 1.000000 1.000000
vn -0.3737579 -0.0000000 0.9275264
v -0.2500000 0.1250000 0.4375000 0.000000 0.000000 0.000000
vn -0.3737584 -0.4637623 -0.8032616
v -0.2500000 0.0625000 0.2042468 0.647059 0.647059 0.647059
vn -0.7101384 -0.3520311 -0.6097355
v -0.2750000 0.0751079 0.2260843 0.000000 0.000000 0.000000
vn 0.3737588 -0.6558600 -0.6558598
v -0.1750000 0.0366117 0.2241116 1.000000 1.000000 1.000000
vn 0.7101378 0.6800722 0.1822259
v -0.1500000 0.2213842 0.3383261 1.000000 1.000000 1.000000
vn 0.3737585 0.8959214 0.2400614
v -0.1750000 0.2457407 0.3448524 1.000000 1.000000 1.000000
vn 0.7101381 -0.6097358 0.3520313
v -0.1500000 0.0385843 0.3623921 1.000000 1.000000 1.000000
vn 0.3737586 -0.8032613 0.4637626
v -0.1750000 0.0167468 0.3750000 1.000000 1.000000 1.000000
vn 0.3737583 -0.2400613 -0.8959215
v -0.1750000 0.0926476 0.1917593 1.000000 1.000000 1.000000
vn 0.3737585 -0.4637623 -0.8032616
v -0.1750000 0.0625000 0.2042468 1.000000 1.000000 1.000000
vn 0.7101387 -0.3520310 -0.6097354
v -0.1500000 0.0751079 0.2260843 1.000000 1.000000 1.000000
vn 0.3737583 0.2400612 0.8959215
v -0.1750000 0.1573524 0.4332407 1.000000 1.000000 1.000000
vn 0.3737583 -0.8959214 0.2400616
v -0.1750000 0.0042593 0.3448524 1.000000 1.000000 1.000000
vn 0.3737583 -0.9275261 -0.0000000
v -0.1750000 0.0000000 0.3125000 1.000000 1.000000 1.000000
vn 0.3737592 0.6558599 -0.6558596
v -0.1750000 0.2133884 0.2241116 1.000000 1.000000 1.000000
vn 0.3737590 0.8032616 -0.4637618
v -0.1750000 0.2332532 0.2500000 1.000000 1.000000 1.000000
vn 0.7101386 0.6097355 -0.3520311
v -0.1500000 0.2114157 0.2626079 1.000000 1.000000 1.000000
vn 0.7101380 -0.6800721 0.1822252
v -0.1500000 0.0286158 0.3383261 1.000000 1.000000 1.000000
vn 0.3737587 0.4637620 0.8032616
v -0.1750000 0.1875000 0.4207532 1.000000 1.000000 1.000000
vn 0.7101381 -0.6097358 -0.3520313
v -0.1500000 0.0385843 0.2626079 1.000000 1.000000 1.000000
vn -0.7101379 -0.6097360 0.3520314
v -0.2750000 0.0385843 0.3623921 0.000000 0.000000 0.000000
vn -0.3737585 -0.8032613 0.4637626
v -0.2500000 0.0167468 0.3750000 0.619608 0.619608 0.619608
vn 0.7101380 -0.6800721 -0.1822252
v -0.1500000 0.0286158 0.2866739 1.000000 1.000000 1.000000
vn 0.3737581 -0.0000000 -0.9275262
v -0.1750000 0.1250000 0.1875000 1.000000 1.000000 1.000000
vn 0.7101377 0.6800722 -0.1822258
v -0.1500000 0.2213842 0.2866739 1.000000 1.000000 1.000000
vn 0.7101380 -0.7040625 -0.0000000
v -0.1500000 0.0252157 0.3125000 1.000000 1.000000 1.000000
vn 0.9133555 -0.0000000 -0.4071631
v -0.1500000 0.1250000 -0.2872843 1.000000 1.000000 1.000000
vn 0.9133558 -0.1053816 -0.3932886
v -0.1500000 0.0991739 -0.2838842 1.000000 1.000000 1.000000
vn 0.9133558 0.1053817 -0.3932886
v -0.1500000 0.1508261 -0.2838842 1.000000 1.000000 1.000000
vn 0.9133561 0.2035810 -0.3526125
v -0.1500000 0.1748921 -0.2739157 1.000000 1.000000 1.000000
vn 1.0000000 0.0000000 0.0000000
v -0.1500000 0.0751079 -0.2739157 1.000000 1.000000 1.000000
vn 0.9133562 0.2879069 -0.2879063
v -0.1500000 0.1955581 -0.2580581 1.000000 1.000000 1.000000
vn 0.9133560 -0.2879073 -0.2879066
v -0.1500000 0.0544419 -0.2580581 1.000000 1.000000 1.000000
vn 1.0000000 0.0000000 0.0000000
v -0.1500000 0.2114157 -0.2373921 1.000000 1.000000 1.000000
vn 1.0000000 0.0000000 0.0000000
v -0.1500000 0.0385843 -0.2373921 1.000000 1.000000 1.000000
vn 1.0000000 0.0000000 0.0000000
v -0.1500000 0.2213842 -0.2133261 1.000000 1.000000 1.000000
vn 1.0000000 0.0000000 0.0000000
v -0.1500000 0.0286158 -0.2133261 1.000000 1.000000 1.000000
vn 0.9133555 0.4071631 -0.0000000
v -0.1500000 0.2247843 -0.1875000 1.000000 1.000000 1.000000
vn 1.0000000 0.0000000 0.0000000
v -0.1500000 0.0252157 -0.1875000 1.000000 1.000000 1.000000
vn 1.0000000 0.0000000 0.0000000
v -0.1500000 0.2213842 -0.1616739 1.000000 1.000000 1.000000
vn 1.0000000 0.0000000 0.0000000
v -0.1500000 0.0286158 -0.1616739 1.000000 1.000000 1.000000
vn 1.0000000 0.0000000 0.0000000
v -0.1500000 0.2114157 -0.1376079 1.000000 1.000000 1.000000
vn 1.0000000 0.0000000 0.0000000
v -0.1500000 0.0385843 -0.1376079 1.000000 1.000000 1.000000
vn 0.9133561 0.2879069 0.2879067
v -0.1500000 0.1955581 -0.1169419 1.000000 1.000000 1.000000
vn 0.9133559 -0.2879074 0.2879070
v -0.1500000 0.0544419 -0.1169419 1.000000 1.000000 1.000000
vn 1.0000000 0.0000000 0.0000000
v -0.1500000 0.0751079 -0.1010843 1.000000 1.000000 1.000000
vn 0.9133560 0.2035812 0.3526126
v -0.1500000 0.1748921 -0.1010843 1.000000 1.000000 1.000000
vn 0.9133557 0.1053816 0.3932888
v -0.1500000 0.1508261 -0.0911158 1.000000 1.000000 1.000000
vn 0.9133558 -0.1053814 0.3932887
v -0.1500000 0.0991739 -0.0911158 1.000000 1.000000 1.000000
vn 0.9133558 -0.0000000 0.4071625
v -0.1500000 0.1250000 -0.0877157 1.000000 1.000000 1.000000
vn -0.8722659 0.0000001 0.4890318
v -0.2500000 0.1250000 -0.2250825 0.007843 0.007843 0.007843
vn -0.9476880 -0.0000000 0.3191980
v -0.2750000 0.1250000 -0.2471548 0.000000 0.000000 0.000000
vn -0.8722652 -0.3457987 0.3457987
v -0.2500000 0.1515749 -0.2140749 0.000000 0.000000 0.000000
vn -0.9476878 -0.2257076 0.2257076
v -0.2750000 0.1671823 -0.2296823 0.000000 0.000000 0.000000
vn -0.8722650 -0.3457993 -0.3457985
v -0.2500000 0.1515749 -0.1609251 0.000000 0.000000 0.000000
vn -0.8722658 -0.4890321 -0.0000006
v -0.2500000 0.1625825 -0.1875000 0.011765 0.011765 0.011765
vn -0.9476879 -0.2257076 -0.2257073
v -0.2750000 0.1671823 -0.1453177 0.000000 0.000000 0.000000
vn -0.9476881 -0.3191978 -0.0000002
v -0.2750000 0.1846548 -0.1875000 0.000000 0.000000 0.000000
vn -0.8722653 0.3457983 0.3457987
v -0.2500000 0.0984251 -0.2140749 0.000000 0.000000 0.000000
vn -0.8722657 0.4890323 0.0000002
v -0.2500000 0.0874175 -0.1875000 0.000000 0.000000 0.000000
vn -0.9476880 0.2257073 0.2257072
v -0.2750000 0.0828177 -0.2296823 0.000000 0.000000 0.000000
vn -0.9476882 0.3191977 0.0000001
v -0.2750000 0.0653452 -0.1875000 0.000000 0.000000 0.000000
vn -0.8722659 0.0000001 -0.4890318
v -0.2500000 0.1250000 -0.1499175 0.000000 0.000000 0.000000
vn -0.9476880 -0.0000000 -0.3191980
v -0.2750000 0.1250000 -0.1278452 0.000000 0.000000 0.000000
vn -0.8722654 0.3457981 -0.3457988
v -0.2500000 0.0984251 -0.1609251 0.000000 0.000000 0.000000
vn -0.9476879 0.2257073 -0.2257073
v -0.2750000 0.0828177 -0.1453177 0.000000 0.000000 0.000000
vn -0.9133556 0.1053816 0.3932889
v -0.2750000 0.1508261 -0.0911158 0.000000 0.000000 0.000000
vn -0.9133556 -0.0000000 0.4071628
v -0.2750000 0.1250000 -0.0877157 0.000000 0.000000 0.000000
vn -0.9133559 0.2035812 0.3526126
v -0.2750000 0.1748921 -0.1010843 0.000000 0.000000 0.000000
vn -0.9133560 0.2879070 0.2879068
v -0.2750000 0.1955581 -0.1169419 0.000000 0.000000 0.000000
vn -1.0000000 0.0000000 0.0000000
v -0.2750000 0.2114157 -0.1376079 0.000000 0.000000 0.000000
vn -1.0000000 0.0000000 0.0000000
v -0.2750000 0.2213842 -0.1616739 0.000000 0.000000 0.000000
vn -0.9133555 0.4071632 -0.0000000
v -0.2750000 0.2247843 -0.1875000 0.003922 0.003922 0.003922
vn -1.0000000 0.0000000 0.0000000
v -0.2750000 0.2213842 -0.2133261 0.000000 0.000000 0.000000
vn -1.0000000 0.0000000 0.0000000
v -0.2750000 0.2114157 -0.2373921 0.000000 0.000000 0.000000
vn -0.9133562 0.2879069 -0.2879064
v -0.2750000 0.1955581 -0.2580581 0.000000 0.000000 0.000000
vn -0.9133560 0.2035810 -0.3526125
v -0.2750000 0.1748921 -0.2739157 0.000000 0.000000 0.000000
vn -0.9133558 0.1053818 -0.3932887
v -0.2750000 0.1508261 -0.2838842 0.000000 0.000000 0.000000
vn -0.9133554 -0.0000000 -0.4071632
v -0.2750000 0.1250000 -0.2872843 0.000000 0.000000 0.000000
vn -0.9133558 -0.1053816 -0.3932887
v -0.2750000 0.0991739 -0.2838842 0.000000 0.000000 0.000000
vn -1.0000000 0.0000000 0.0000000
v -0.2750000 0.0751079 -0.2739157 0.000000 0.000000 0.000000
vn -0.9133559 -0.2879074 -0.2879068
v -0.2750000 0.0544419 -0.2580581 0.000000 0.000000 0.000000
vn -1.0000000 0.0000000 0.0000000
v -0.2750000 0.0385843 -0.2373921 0.000000 0.000000 0.000000
vn -1.0000000 0.0000000 0.0000000
v -0.2750000 0.0286158 -0.2133261 0.000000 0.000000 0.000000
vn -1.0000000 0.0000000 0.0000000
v -0.2750000 0.0252157 -0.1875000 0.000000 0.000000 0.000000
vn -1.0000000 0.0000000 0.0000000
v -0.2750000 0.0286158 -0.1616739 0.000000 0.000000 0.000000
vn -1.0000000 0.0000000 0.0000000
v -0.2750000 0.0385843 -0.1376079 0.000000 0.000000 0.000000
vn -0.9133558 -0.2879075 0.2879072
v -0.2750000 0.0544419 -0.1169419 0.066667 0.066667 0.066667
vn -1.0000000 0.0000000 0.0000000
v -0.2750000 0.0751079 -0.1010843 0.113725 0.113725 0.113725
vn -0.9133557 -0.1053815 0.3932889
v -0.2750000 0.0991739 -0.0911158 0.086275 0.086275 0.086275
vn -0.3737582 0.2400612 -0.8959216
v -0.2500000 0.1573524 -0.3082407 0.556863 0.556863 0.556863
vn -0.3737586 0.4637620 -0.8032617
v -0.2500000 0.1875000 -0.2957532 0.266667 0.266667 0.266667
vn -0.3737587 -0.6558602 -0.6558596
v -0.2500000 0.0366117 -0.2758884 1.000000 1.000000 1.000000
vn -0.3737585 -0.8032613 -0.4637627
v -0.2500000 0.0167468 -0.2500000 1.000000 1.000000 1.000000
vn -0.7101380 -0.6097360 -0.3520314
v -0.2750000 0.0385843 -0.2373921 0.000000 0.000000 0.000000
vn -0.3737583 0.8959215 -0.2400615
v -0.2500000 0.2457407 -0.2198524 1.000000 1.000000 1.000000
vn -0.3737580 0.9275263 -0.0000000
v -0.2500000 0.2500000 -0.1875000 1.000000 1.000000 1.000000
vn -0.7101375 0.6800724 -0.1822258
v -0.2750000 0.2213842 -0.2133261 0.000000 0.000000 0.000000
vn -0.3737589 0.6558599 0.6558599
v -0.2500000 0.2133884 -0.0991116 1.000000 1.000000 1.000000
vn -0.3737586 0.4637628 0.8032613
v -0.2500000 0.1875000 -0.0792468 0.462745 0.462745 0.462745
vn -0.7101375 0.6800724 0.1822258
v -0.2750000 0.2213842 -0.1616739 0.000000 0.000000 0.000000
vn -0.3737583 0.8959215 0.2400615
v -0.2500000 0.2457407 -0.1551476 1.000000 1.000000 1.000000
vn -0.7101384 0.6097357 0.3520312
v -0.2750000 0.2114157 -0.1376079 0.000000 0.000000 0.000000
vn -0.3737589 0.8032615 0.4637623
v -0.2500000 0.2332532 -0.1250000 1.000000 1.000000 1.000000
vn -0.3737582 -0.8959214 -0.2400616
v -0.2500000 0.0042593 -0.2198524 1.000000 1.000000 1.000000
vn -0.7101378 -0.6800723 -0.1822252
v -0.2750000 0.0286158 -0.2133261 0.345098 0.345098 0.345098
vn -0.3737582 -0.9275262 0.0000000
v -0.2500000 0.0000000 -0.1875000 1.000000 1.000000 1.000000
vn -0.7101378 -0.7040628 -0.0000000
v -0.2750000 0.0252157 -0.1875000 0.266667 0.266667 0.266667
vn -0.7101381 -0.3520313 0.6097358
v -0.2750000 0.0751079 -0.1010843 0.113725 0.113725 0.113725
vn -0.3737584 -0.4637630 0.8032613
v -0.2500000 0.0625000 -0.0792468 1.000000 1.000000 1.000000
vn -0.3737583 -0.2400614 0.8959215
v -0.2500000 0.0926476 -0.0667593 1.000000 1.000000 1.000000
vn -0.3737584 -0.6558601 0.6558599
v -0.2500000 0.0366117 -0.0991116 1.000000 1.000000 1.000000
vn -0.3737589 0.8032616 -0.4637618
v -0.2500000 0.2332532 -0.2500000 1.000000 1.000000 1.000000
vn -0.7101384 0.6097357 -0.3520312
v -0.2750000 0.2114157 -0.2373921 0.000000 0.000000 0.000000
vn -0.3737591 0.6558599 -0.6558596
v -0.2500000 0.2133884 -0.2758884 1.000000 1.000000 1.000000
vn -0.3737579 -0.0000000 -0.9275263
v -0.2500000 0.1250000 -0.3125000 1.000000 1.000000 1.000000
vn 0.7101386 0.6097355 0.3520311
v -0.1500000 0.2114157 -0.1376079 1.000000 1.000000 1.000000
vn 0.3737590 0.8032614 0.4637623
v -0.1750000 0.2332532 -0.1250000 1.000000 1.000000 1.000000
vn 0.3737591 0.6558599 0.6558598
v -0.1750000 0.2133884 -0.0991116 1.000000 1.000000 1.000000
vn 0.3737585 0.8959214 -0.2400615
v -0.1750000 0.2457407 -0.2198524 1.000000 1.000000 1.000000
vn 0.3737581 0.9275262 -0.0000000
v -0.1750000 0.2500000 -0.1875000 1.000000 1.000000 1.000000
vn 0.3737586 -0.6558601 0.6558599
v -0.1750000 0.0366117 -0.0991116 1.000000 1.000000 1.000000
vn 0.7101384 -0.3520313 0.6097357
v -0.1500000 0.0751079 -0.1010843 1.000000 1.000000 1.000000
vn 0.3737585 -0.4637629 0.8032612
v -0.1750000 0.0625000 -0.0792468 1.000000 1.000000 1.000000
vn 0.3737583 0.2400612 -0.8959215
v -0.1750000 0.1573524 -0.3082407 1.000000 1.000000 1.000000
vn 0.3737587 0.4637620 -0.8032616
v -0.1750000 0.1875000 -0.2957532 1.000000 1.000000 1.000000
vn -0.3737582 -0.2400611 -0.8959216
v -0.2500000 0.0926476 -0.3082407 1.000000 1.000000 1.000000
vn -0.3737583 0.2400615 0.8959215
v -0.2500000 0.1573524 -0.0667593 1.000000 1.000000 1.000000
vn -0.3737582 -0.8959215 0.2400616
v -0.2500000 0.0042593 -0.1551476 1.000000 1.000000 1.000000
vn -0.7101378 -0.6800724 0.1822252
v -0.2750000 0.0286158 -0.1616739 0.000000 0.000000 0.000000
vn 0.3737584 -0.8959214 -0.2400616
v -0.1750000 0.0042593 -0.2198524 1.000000 1.000000 1.000000
vn 0.3737586 -0.8032613 -0.4637628
v -0.1750000 0.0167468 -0.2500000 1.000000 1.000000 1.000000
vn 0.3737585 -0.2400613 0.8959214
v -0.1750000 0.0926476 -0.0667593 1.000000 1.000000 1.000000
vn 0.3737585 -0.0000000 0.9275261
v -0.1750000 0.1250000 -0.0625000 1.000000 1.000000 1.000000
vn -0.3737585 -0.4637622 -0.8032616
v -0.2500000 0.0625000 -0.2957532 1.000000 1.000000 1.000000
vn -0.7101386 -0.3520310 -0.6097356
v -0.2750000 0.0751079 -0.2739157 0.000000 0.000000 0.000000
vn 0.3737588 -0.6558601 -0.6558596
v -0.1750000 0.0366117 -0.2758884 1.000000 1.000000 1.000000
vn 0.7101378 0.6800722 0.1822258
v -0.1500000 0.2213842 -0.1616739 1.000000 1.000000 1.000000
vn 0.3737584 0.8959214 0.2400615
v -0.1750000 0.2457407 -0.1551476 1.000000 1.000000 1.000000
vn 0.7101381 -0.6097358 0.3520314
v -0.1500000 0.0385843 -0.1376079 1.000000 1.000000 1.000000
vn 0.3737585 -0.8032611 0.4637631
v -0.1750000 0.0167468 -0.1250000 1.000000 1.000000 1.000000
vn 0.3737583 -0.2400611 -0.8959216
v -0.1750000 0.0926476 -0.3082407 1.000000 1.000000 1.000000
vn 0.3737586 -0.4637622 -0.8032616
v -0.1750000 0.0625000 -0.2957532 1.000000 1.000000 1.000000
vn 0.7101388 -0.3520309 -0.6097354
v -0.1500000 0.0751079 -0.2739157 1.000000 1.000000 1.000000
vn 0.3737584 0.2400614 0.8959214
v -0.1750000 0.1573524 -0.0667593 1.000000 1.000000 1.000000
vn 0.3737584 -0.8959214 0.2400616
v -0.1750000 0.0042593 -0.1551476 1.000000 1.000000 1.000000
vn 0.3737583 -0.9275262 -0.0000000
v -0.1750000 0.0000000 -0.1875000 1.000000 1.000000 1.000000
vn 0.3737593 0.6558599 -0.6558595
v -0.1750000 0.2133884 -0.2758884 1.000000 1.000000 1.000000
vn 0.3737590 0.8032616 -0.4637618
v -0.1750000 0.2332532 -0.2500000 1.000000 1.000000 1.000000
vn 0.7101386 0.6097355 -0.3520311
v -0.1500000 0.2114157 -0.2373921 1.000000 1.000000 1.000000
vn 0.7101380 -0.6800721 0.1822251
v -0.1500000 0.0286158 -0.1616739 1.000000 1.000000 1.000000
vn 0.3737587 0.4637627 0.8032612
v -0.1750000 0.1875000 -0.0792468 1.000000 1.000000 1.000000
vn 0.7101381 -0.6097358 -0.3520314
v -0.1500000 0.0385843 -0.2373921 1.000000 1.000000 1.000000
vn -0.7101380 -0.6097360 0.3520314
v -0.2750000 0.0385843 -0.1376079 0.000000 0.000000 0.000000
vn -0.3737583 -0.8032612 0.4637631
v -0.2500000 0.0167468 -0.1250000 1.000000 1.000000 1.000000
vn 0.7101380 -0.6800721 -0.1822251
v -0.1500000 0.0286158 -0.2133261 1.000000 1.000000 1.000000
vn 0.3737580 -0.0000000 -0.9275263
v -0.1750000 0.1250000 -0.3125000 1.000000 1.000000 1.000000
vn 0.7101378 0.6800722 -0.1822258
v -0.1500000 0.2213842 -0.2133261 1.000000 1.000000 1.000000
vn 0.7101380 -0.7040625 -0.0000000
v -0.1500000 0.0252157 -0.1875000 1.000000 1.000000 1.000000
vn 0.9476882 -0.3191976 0.0000000
v 0.2750000 0.1846548 0.3125000 0.000000 0.000000 0.000000
vn 0.8722656 -0.4890325 -0.0000000
v 0.2500000 0.1625825 0.3125000 0.000000 0.000000 0.000000
vn 0.9476879 -0.2257077 -0.2257074
v 0.2750000 0.1671823 0.3546823 0.000000 0.000000 0.000000
vn 0.8722649 -0.3457994 -0.3457987
v 0.2500000 0.1515749 0.3390749 0.000000 0.000000 0.000000
vn 0.9133558 -0.1053816 0.3932887
v 0.2750000 0.0991739 0.4088842 0.000000 0.000000 0.000000
vn 0.9133554 -0.0000000 0.4071632
v 0.2750000 0.1250000 0.4122843 0.000000 0.000000 0.000000
vn 1.0000000 0.0000000 0.0000000
v 0.2750000 0.0751079 0.3989157 0.000000 0.000000 0.000000
vn 0.9133559 -0.2879074 0.2879068
v 0.2750000 0.0544419 0.3830581 0.000000 0.000000 0.000000
vn 0.9476880 -0.0000000 -0.3191980
v 0.2750000 0.1250000 0.3721548 0.000000 0.000000 0.000000
vn 1.0000000 0.0000000 0.0000000
v 0.2750000 0.0385843 0.3623921 0.000000 0.000000 0.000000
vn 0.9476880 0.2257074 -0.2257072
v 0.2750000 0.0828177 0.3546823 0.000000 0.000000 0.000000
vn 1.0000000 0.0000000 0.0000000
v 0.2750000 0.0286158 0.3383261 0.000000 0.000000 0.000000
vn 0.9476882 0.3191977 -0.0000001
v 0.2750000 0.0653452 0.3125000 0.000000 0.000000 0.000000
vn 1.0000000 0.0000000 0.0000000
v 0.2750000 0.0252157 0.3125000 0.000000 0.000000 0.000000
vn 1.0000000 0.0000000 0.0000000
v 0.2750000 0.0286158 0.2866739 0.000000 0.000000 0.000000
vn 0.9476879 0.2257074 0.2257073
v 0.2750000 0.0828177 0.2703177 0.000000 0.000000 0.000000
vn 1.0000000 0.0000000 0.0000000
v 0.2750000 0.0385843 0.2626079 0.000000 0.000000 0.000000
vn 0.9476880 -0.0000000 0.3191980
v 0.2750000 0.1250000 0.2528452 0.000000 0.000000 0.000000
vn 0.9133559 -0.2879073 -0.2879069
v 0.2750000 0.0544419 0.2419419 0.000000 0.000000 0.000000
vn 1.0000000 0.0000000 0.0000000
v 0.2750000 0.0751079 0.2260843 0.000000 0.000000 0.000000
vn 0.9133556 -0.1053816 -0.3932889
v 0.2750000 0.0991739 0.2161158 0.000000 0.000000 0.000000
vn 0.9133555 -0.0000000 -0.4071631
v 0.2750000 0.1250000 0.2127157 0.000000 0.000000 0.000000
vn 0.9133556 0.1053817 -0.3932889
v 0.2750000 0.1508261 0.2161158 0.000000 0.000000 0.000000
vn 0.9133560 0.2035811 -0.3526125
v 0.2750000 0.1748921 0.2260843 0.000000 0.000000 0.000000
vn 0.9133561 0.2879069 -0.2879066
v 0.2750000 0.1955581 0.2419419 0.000000 0.000000 0.000000
vn 1.0000000 0.0000000 0.0000000
v 0.2750000 0.2114157 0.2626079 0.000000 0.000000 0.000000
vn 0.9476879 -0.2257077 0.2257074
v 0.2750000 0.1671823 0.2703177 0.000000 0.000000 0.000000
vn 1.0000000 0.0000000 0.0000000
v 0.2750000 0.2213842 0.2866739 0.000000 0.000000 0.000000
vn 0.9133555 0.4071632 0.0000000
v 0.2750000 0.2247843 0.3125000 0.000000 0.000000 0.000000
vn 1.0000000 0.0000000 0.0000000
v 0.2750000 0.2213842 0.3383261 0.078431 0.078431 0.078431
vn 1.0000000 0.0000000 0.0000000
v 0.2750000 0.2114157 0.3623921 0.000000 0.000000 0.000000
vn 0.9133562 0.2879069 0.2879064
v 0.2750000 0.1955581 0.3830581 0.000000 0.000000 0.000000
vn 0.9133560 0.2035811 0.3526126
v 0.2750000 0.1748921 0.3989157 0.000000 0.000000 0.000000
vn 0.9133558 0.1053818 0.3932887
v 0.2750000 0.1508261 0.4088842 0.000000 0.000000 0.000000
vn 0.8722661 0.0000001 -0.4890316
v 0.2500000 0.1250000 0.3500825 0.000000 0.000000 0.000000
vn 0.8722653 0.3457982 0.3457989
v 0.2500000 0.0984251 0.2859251 0.000000 0.000000 0.000000
vn 0.8722661 0.0000000 0.4890316
v 0.2500000 0.1250000 0.2749175 0.000000 0.000000 0.000000
vn 0.8722657 0.4890323 -0.0000002
v 0.2500000 0.0874175 0.3125000 0.000000 0.000000 0.000000
vn 0.8722653 0.3457984 -0.3457988
v 0.2500000 0.0984251 0.3390749 0.000000 0.000000 0.000000
vn 0.8722649 -0.3457993 0.3457987
v 0.2500000 0.1515749 0.2859251 0.000000 0.000000 0.000000
vn -0.9133555 -0.0000000 -0.4071630
v 0.1500000 0.1250000 0.2127157 1.000000 1.000000 1.000000
vn -0.9133558 0.1053817 -0.3932888
v 0.1500000 0.1508261 0.2161158 1.000000 1.000000 1.000000
vn -0.9133558 -0.1053816 -0.3932887
v 0.1500000 0.0991739 0.2161158 1.000000 1.000000 1.000000
vn -1.0000000 0.0000000 0.0000000
v 0.1500000 0.0751079 0.2260843 1.000000 1.000000 1.000000
vn -0.9133561 0.2035810 -0.3526123
v 0.1500000 0.1748921 0.2260843 1.000000 1.000000 1.000000
vn -0.9133559 -0.2879073 -0.2879069
v 0.1500000 0.0544419 0.2419419 1.000000 1.000000 1.000000
vn -0.9133562 0.2879068 -0.2879065
v 0.1500000 0.1955581 0.2419419 1.000000 1.000000 1.000000
vn -1.0000000 0.0000000 0.0000000
v 0.1500000 0.2114157 0.2626079 1.000000 1.000000 1.000000
vn -1.0000000 0.0000000 0.0000000
v 0.1500000 0.0385843 0.2626079 1.000000 1.000000 1.000000
vn -1.0000000 0.0000000 0.0000000
v 0.1500000 0.0286158 0.2866739 1.000000 1.000000 1.000000
vn -1.0000000 0.0000000 0.0000000
v 0.1500000 0.2213842 0.2866739 1.000000 1.000000 1.000000
vn -1.0000000 0.0000000 0.0000000
v 0.1500000 0.0252157 0.3125000 1.000000 1.000000 1.000000
vn -0.9133555 0.4071631 0.0000000
v 0.1500000 0.2247843 0.3125000 1.000000 1.000000 1.000000
vn -1.0000000 0.0000000 0.0000000
v 0.1500000 0.0286158 0.3383261 1.000000 1.000000 1.000000
vn -1.0000000 0.0000000 0.0000000
v 0.1500000 0.2213842 0.3383261 1.000000 1.000000 1.000000
vn -1.0000000 0.0000000 0.0000000
v 0.1500000 0.0385843 0.3623921 1.000000 1.000000 1.000000
vn -1.0000000 0.0000000 0.0000000
v 0.1500000 0.2114157 0.3623921 1.000000 1.000000 1.000000
vn -0.9133560 -0.2879073 0.2879066
v 0.1500000 0.0544419 0.3830581 1.000000 1.000000 1.000000
vn -0.9133562 0.2879069 0.2879063
v 0.1500000 0.1955581 0.3830581 1.000000 1.000000 1.000000
vn -1.0000000 0.0000000 0.0000000
v 0.1500000 0.0751079 0.3989157 1.000000 1.000000 1.000000
vn -0.9133561 0.2035810 0.3526125
v 0.1500000 0.1748921 0.3989157 1.000000 1.000000 1.000000
vn -0.9133558 -0.1053816 0.3932886
v 0.1500000 0.0991739 0.4088842 1.000000 1.000000 1.000000
vn -0.9133558 0.1053817 0.3932886
v 0.1500000 0.1508261 0.4088842 1.000000 1.000000 1.000000
vn -0.9133555 -0.0000000 0.4071631
v 0.1500000 0.1250000 0.4122843 1.000000 1.000000 1.000000
vn 0.3737582 0.2400612 0.8959216
v 0.2500000 0.1573524 0.4332407 0.698039 0.698039 0.698039
vn 0.3737586 0.4637620 0.8032617
v 0.2500000 0.1875000 0.4207532 1.000000 1.000000 1.000000
vn 0.3737587 -0.6558602 0.6558596
v 0.2500000 0.0366117 0.4008884 1.000000 1.000000 1.000000
vn 0.3737585 -0.8032613 0.4637626
v 0.2500000 0.0167468 0.3750000 1.000000 1.000000 1.000000
vn 0.7101380 -0.6097360 0.3520314
v 0.2750000 0.0385843 0.3623921 0.000000 0.000000 0.000000
vn 0.3737583 0.8959215 0.2400614
v 0.2500000 0.2457407 0.3448524 1.000000 1.000000 1.000000
vn 0.3737580 0.9275263 0.0000000
v 0.2500000 0.2500000 0.3125000 1.000000 1.000000 1.000000
vn 0.7101375 0.6800724 0.1822259
v 0.2750000 0.2213842 0.3383261 0.078431 0.078431 0.078431
vn 0.3737591 0.6558599 -0.6558598
v 0.2500000 0.2133884 0.2241116 1.000000 1.000000 1.000000
vn 0.3737586 0.4637620 -0.8032616
v 0.2500000 0.1875000 0.2042468 1.000000 1.000000 1.000000
vn 0.7101375 0.6800724 -0.1822259
v 0.2750000 0.2213842 0.2866739 0.000000 0.000000 0.000000
vn 0.3737582 0.8959215 -0.2400614
v 0.2500000 0.2457407 0.2801476 1.000000 1.000000 1.000000
vn 0.7101383 0.6097357 -0.3520312
v 0.2750000 0.2114157 0.2626079 0.000000 0.000000 0.000000
vn 0.3737588 0.8032616 -0.4637619
v 0.2500000 0.2332532 0.2500000 1.000000 1.000000 1.000000
vn 0.3737583 -0.8959215 0.2400616
v 0.2500000 0.0042593 0.3448524 1.000000 1.000000 1.000000
vn 0.7101378 -0.6800724 0.1822252
v 0.2750000 0.0286158 0.3383261 0.000000 0.000000 0.000000
vn 0.3737583 -0.9275262 -0.0000000
v 0.2500000 0.0000000 0.3125000 1.000000 1.000000 1.000000
vn 0.7101378 -0.7040628 -0.0000000
v 0.2750000 0.0252157 0.3125000 0.000000 0.000000 0.000000
vn 0.7101386 -0.3520311 -0.6097355
v 0.2750000 0.0751079 0.2260843 0.000000 0.000000 0.000000
vn 0.3737584 -0.4637623 -0.8032616
v 0.2500000 0.0625000 0.2042468 1.000000 1.000000 1.000000
vn 0.3737581 -0.2400613 -0.8959216
v 0.2500000 0.0926476 0.1917593 1.000000 1.000000 1.000000
vn 0.3737586 -0.6558601 -0.6558598
v 0.2500000 0.0366117 0.2241116 1.000000 1.000000 1.000000
vn 0.3737589 0.8032617 0.4637617
v 0.2500000 0.2332532 0.3750000 1.000000 1.000000 1.000000
vn 0.7101383 0.6097357 0.3520312
v 0.2750000 0.2114157 0.3623921 0.000000 0.000000 0.000000
vn 0.3737591 0.6558599 0.6558596
v 0.2500000 0.2133884 0.4008884 1.000000 1.000000 1.000000
vn 0.3737579 -0.0000000 0.9275263
v 0.2500000 0.1250000 0.4375000 0.007843 0.007843 0.007843
vn -0.7101386 0.6097355 -0.3520311
v 0.1500000 0.2114157 0.2626079 1.000000 1.000000 1.000000
vn -0.3737591 0.8032616 -0.4637619
v 0.1750000 0.2332532 0.2500000 1.000000 1.000000 1.000000
vn -0.3737592 0.6558599 -0.6558596
v 0.1750000 0.2133884 0.2241116 1.000000 1.000000 1.000000
vn -0.3737585 0.8959214 0.2400614
v 0.1750000 0.2457407 0.3448524 1.000000 1.000000 1.000000
vn -0.3737581 0.9275262 0.0000000
v 0.1750000 0.2500000 0.3125000 1.000000 1.000000 1.000000
vn -0.3737588 -0.6558600 -0.6558598
v 0.1750000 0.0366117 0.2241116 1.000000 1.000000 1.000000
vn -0.7101387 -0.3520310 -0.6097353
v 0.1500000 0.0751079 0.2260843 1.000000 1.000000 1.000000
vn -0.3737586 -0.4637623 -0.8032616
v 0.1750000 0.0625000 0.2042468 1.000000 1.000000 1.000000
vn -0.3737583 0.2400612 0.8959215
v 0.1750000 0.1573524 0.4332407 1.000000 1.000000 1.000000
vn -0.3737587 0.4637620 0.8032616
v 0.1750000 0.1875000 0.4207532 1.000000 1.000000 1.000000
vn 0.3737582 -0.2400611 0.8959216
v 0.2500000 0.0926476 0.4332407 0.717647 0.717647 0.717647
vn 0.3737581 0.2400614 -0.8959216
v 0.2500000 0.1573524 0.1917593 1.000000 1.000000 1.000000
vn 0.3737582 -0.8959215 -0.2400616
v 0.2500000 0.0042593 0.2801476 0.737255 0.737255 0.737255
vn 0.7101378 -0.6800724 -0.1822252
v 0.2750000 0.0286158 0.2866739 0.000000 0.000000 0.000000
vn -0.3737583 -0.8959214 0.2400616
v 0.1750000 0.0042593 0.3448524 1.000000 1.000000 1.000000
vn -0.3737586 -0.8032613 0.4637627
v 0.1750000 0.0167468 0.3750000 1.000000 1.000000 1.000000
vn -0.3737583 -0.2400613 -0.8959215
v 0.1750000 0.0926476 0.1917593 1.000000 1.000000 1.000000
vn -0.3737581 -0.0000000 -0.9275262
v 0.1750000 0.1250000 0.1875000 1.000000 1.000000 1.000000
vn 0.3737585 -0.4637622 0.8032616
v 0.2500000 0.0625000 0.4207532 0.000000 0.000000 0.000000
vn 0.7101386 -0.3520310 0.6097356
v 0.2750000 0.0751079 0.3989157 0.000000 0.000000 0.000000
vn -0.3737588 -0.6558601 0.6558596
v 0.1750000 0.0366117 0.4008884 1.000000 1.000000 1.000000
vn -0.7101378 0.6800722 -0.1822259
v 0.1500000 0.2213842 0.2866739 1.000000 1.000000 1.000000
vn -0.3737585 0.8959214 -0.2400614
v 0.1750000 0.2457407 0.2801476 1.000000 1.000000 1.000000
vn -0.7101381 -0.6097358 -0.3520313
v 0.1500000 0.0385843 0.2626079 1.000000 1.000000 1.000000
vn -0.3737586 -0.8032613 -0.4637628
v 0.1750000 0.0167468 0.2500000 1.000000 1.000000 1.000000
vn -0.3737583 -0.2400611 0.8959216
v 0.1750000 0.0926476 0.4332407 1.000000 1.000000 1.000000
vn -0.3737586 -0.4637622 0.8032616
v 0.1750000 0.0625000 0.4207532 1.000000 1.000000 1.000000
vn -0.7101388 -0.3520309 0.6097354
v 0.1500000 0.0751079 0.3989157 1.000000 1.000000 1.000000
vn -0.3737582 0.2400613 -0.8959215
v 0.1750000 0.1573524 0.1917593 1.000000 1.000000 1.000000
vn -0.3737583 -0.8959214 -0.2400616
v 0.1750000 0.0042593 0.2801476 1.000000 1.000000 1.000000
vn -0.3737583 -0.9275261 0.0000000
v 0.1750000 0.0000000 0.3125000 1.000000 1.000000 1.000000
vn -0.3737593 0.6558599 0.6558595
v 0.1750000 0.2133884 0.4008884 1.000000 1.000000 1.000000
vn -0.3737591 0.8032616 0.4637617
v 0.1750000 0.2332532 0.3750000 1.000000 1.000000 1.000000
vn -0.7101386 0.6097355 0.3520311
v 0.1500000 0.2114157 0.3623921 1.000000 1.000000 1.000000
vn -0.7101380 -0.6800721 -0.1822252
v 0.1500000 0.0286158 0.2866739 1.000000 1.000000 1.000000
vn -0.3737587 0.4637620 -0.8032616
v 0.1750000 0.1875000 0.2042468 1.000000 1.000000 1.000000
vn -0.7101381 -0.6097358 0.3520313
v 0.1500000 0.0385843 0.3623921 1.000000 1.000000 1.000000
vn 0.7101379 -0.6097360 -0.3520314
v 0.2750000 0.0385843 0.2626079 0.000000 0.000000 0.000000
vn 0.3737584 -0.8032613 -0.4637628
v 0.2500000 0.0167468 0.2500000 1.000000 1.000000 1.000000
vn -0.7101380 -0.6800721 0.1822252
v 0.1500000 0.0286158 0.3383261 1.000000 1.000000 1.000000
vn -0.3737580 -0.0000000 0.9275263
v 0.1750000 0.1250000 0.4375000 1.000000 1.000000 1.000000
vn -0.7101377 0.6800722 0.1822258
v 0.1500000 0.2213842 0.3383261 1.000000 1.000000 1.000000
vn -0.7101380 -0.7040625 0.0000000
v 0.1500000 0.0252157 0.3125000 1.000000 1.000000 1.000000
vn -0.9133555 -0.0000000 -0.4071631
v 0.1500000 0.1250000 -0.2872843 1.000000 1.000000 1.000000
vn -0.9133558 0.1053817 -0.3932886
v 0.1500000 0.1508261 -0.2838842 1.000000 1.000000 1.000000
vn -0.9133558 -0.1053816 -0.3932886
v 0.1500000 0.0991739 -0.2838842 1.000000 1.000000 1.000000
vn -1.0000000 0.0000000 0.0000000
v 0.1500000 0.0751079 -0.2739157 1.000000 1.000000 1.000000
vn -0.9133561 0.2035810 -0.3526125
v 0.1500000 0.1748921 -0.2739157 1.000000 0.000000 0.015686
vn -0.9133560 -0.2879073 -0.2879066
v 0.1500000 0.0544419 -0.2580581 1.000000 1.000000 1.000000
vn -0.9133562 0.2879069 -0.2879063
v 0.1500000 0.1955581 -0.2580581 1.000000 0.666667 0.674510
vn -1.0000000 0.0000000 0.0000000
v 0.1500000 0.2114157 -0.2373921 1.000000 0.388235 0.396078
vn -1.0000000 0.0000000 0.0000000
v 0.1500000 0.0385843 -0.2373921 1.000000 1.000000 1.000000
vn -1.0000000 0.0000000 0.0000000
v 0.1500000 0.0286158 -0.2133261 1.000000 1.000000 1.000000
vn -1.0000000 0.0000000 0.0000000
v 0.1500000 0.2213842 -0.2133261 1.000000 0.607843 0.615686
vn -1.0000000 0.0000000 0.0000000
v 0.1500000 0.0252157 -0.1875000 1.000000 1.000000 1.000000
vn -0.9133555 0.4071631 0.0000000
v 0.1500000 0.2247843 -0.1875000 1.000000 1.000000 1.000000
vn -1.0000000 0.0000000 0.0000000
v 0.1500000 0.0286158 -0.1616739 1.000000 1.000000 1.000000
vn -1.0000000 0.0000000 0.0000000
v 0.1500000 0.2213842 -0.1616739 1.000000 1.000000 1.000000
vn -1.0000000 0.0000000 0.0000000
v 0.1500000 0.0385843 -0.1376079 1.000000 1.000000 1.000000
vn -1.0000000 0.0000000 0.0000000
v 0.1500000 0.2114157 -0.1376079 1.000000 1.000000 1.000000
vn -0.9133559 -0.2879074 0.2879070
v 0.1500000 0.0544419 -0.1169419 1.000000 1.000000 1.000000
vn -0.9133561 0.2879069 0.2879067
v 0.1500000 0.1955581 -0.1169419 1.000000 1.000000 1.000000
vn -1.0000000 0.0000000 0.0000000
v 0.1500000 0.0751079 -0.1010843 1.000000 1.000000 1.000000
vn -0.9133560 0.2035812 0.3526126
v 0.1500000 0.1748921 -0.1010843 1.000000 1.000000 1.000000
vn -0.9133558 -0.1053814 0.3932888
v 0.1500000 0.0991739 -0.0911158 1.000000 1.000000 1.000000
vn -0.9133557 0.1053816 0.3932888
v 0.1500000 0.1508261 -0.0911158 1.000000 1.000000 1.000000
vn -0.9133558 -0.0000000 0.4071625
v 0.1500000 0.1250000 -0.0877157 1.000000 1.000000 1.000000
vn 0.8722659 0.0000001 -0.4890318
v 0.2500000 0.1250000 -0.1499175 0.000000 0.000000 0.000000
vn 0.9476880 -0.0000000 -0.3191980
v 0.2750000 0.1250000 -0.1278452 0.000000 0.000000 0.000000
vn 0.8722650 -0.3457994 -0.3457986
v 0.2500000 0.1515749 -0.1609251 0.000000 0.000000 0.000000
vn 0.9476879 -0.2257075 -0.2257073
v 0.2750000 0.1671823 -0.1453177 0.000000 0.000000 0.000000
vn 0.9476882 -0.3191976 0.0000000
v 0.2750000 0.1846548 -0.1875000 0.000000 0.000000 0.000000
vn 0.9476879 -0.2257076 0.2257073
v 0.2750000 0.1671823 -0.2296823 0.003922 0.003922 0.003922
vn 0.8722656 -0.4890324 -0.0000000
v 0.2500000 0.1625825 -0.1875000 0.000000 0.000000 0.000000
vn 0.8722650 -0.3457994 0.3457985
v 0.2500000 0.1515749 -0.2140749 0.000000 0.000000 0.000000
vn 0.9476882 0.3191977 -0.0000001
v 0.2750000 0.0653452 -0.1875000 0.000000 0.000000 0.000000
vn 0.9476880 0.2257073 -0.2257072
v 0.2750000 0.0828177 -0.1453177 0.000000 0.000000 0.000000
vn 0.8722657 0.4890323 -0.0000002
v 0.2500000 0.0874175 -0.1875000 0.000000 0.000000 0.000000
vn 0.8722653 0.3457983 -0.3457987
v 0.2500000 0.0984251 -0.1609251 0.000000 0.000000 0.000000
vn 0.9476879 0.2257073 0.2257073
v 0.2750000 0.0828177 -0.2296823 0.000000 0.000000 0.000000
vn 0.8722654 0.3457981 0.3457988
v 0.2500000 0.0984251 -0.2140749 0.000000 0.000000 0.000000
vn 0.9476881 -0.0000000 0.3191980
v 0.2750000 0.1250000 -0.2471548 0.000000 0.000000 0.000000
vn 0.8722659 0.0000001 0.4890318
v 0.2500000 0.1250000 -0.2250825 0.000000 0.000000 0.000000
vn 0.9133557 0.1053816 0.3932889
v 0.2750000 0.1508261 -0.0911158 0.000000 0.000000 0.000000
vn 0.9133559 0.2035812 0.3526127
v 0.2750000 0.1748921 -0.1010843 0.000000 0.000000 0.000000
vn 0.9133556 -0.0000000 0.4071628
v 0.2750000 0.1250000 -0.0877157 0.000000 0.000000 0.000000
vn 0.9133560 0.2879070 0.2879068
v 0.2750000 0.1955581 -0.1169419 0.000000 0.000000 0.000000
vn 1.0000000 0.0000000 0.0000000
v 0.2750000 0.2114157 -0.1376079 0.000000 0.000000 0.000000
vn 1.0000000 0.0000000 0.0000000
v 0.2750000 0.2213842 -0.1616739 0.000000 0.000000 0.000000
vn 0.9133555 0.4071632 0.0000000
v 0.2750000 0.2247843 -0.1875000 0.000000 0.000000 0.000000
vn 1.0000000 0.0000000 0.0000000
v 0.2750000 0.2213842 -0.2133261 0.000000 0.000000 0.000000
vn 1.0000000 0.0000000 0.0000000
v 0.2750000 0.2114157 -0.2373921 0.000000 0.000000 0.000000
vn 0.9133562 0.2879069 -0.2879064
v 0.2750000 0.1955581 -0.2580581 0.074510 0.074510 0.074510
vn 0.9133560 0.2035811 -0.3526125
v 0.2750000 0.1748921 -0.2739157 0.000000 0.000000 0.000000
vn 0.9133558 0.1053818 -0.3932887
v 0.2750000 0.1508261 -0.2838842 0.000000 0.000000 0.000000
vn 0.9133554 -0.0000000 -0.4071632
v 0.2750000 0.1250000 -0.2872843 0.090196 0.090196 0.090196
vn 0.9133558 -0.1053816 -0.3932887
v 0.2750000 0.0991739 -0.2838842 0.000000 0.000000 0.000000
vn 1.0000000 0.0000000 0.0000000
v 0.2750000 0.0751079 -0.2739157 0.000000 0.000000 0.000000
vn 0.9133559 -0.2879074 -0.2879068
v 0.2750000 0.0544419 -0.2580581 0.000000 0.000000 0.000000
vn 1.0000000 0.0000000 0.0000000
v 0.2750000 0.0385843 -0.2373921 0.000000 0.000000 0.000000
vn 1.0000000 0.0000000 0.0000000
v 0.2750000 0.0286158 -0.2133261 0.000000 0.000000 0.000000
vn 1.0000000 0.0000000 0.0000000
v 0.2750000 0.0252157 -0.1875000 0.000000 0.000000 0.000000
vn 1.0000000 0.0000000 0.0000000
v 0.2750000 0.0286158 -0.1616739 0.000000 0.000000 0.000000
vn 1.0000000 0.0000000 0.0000000
v 0.2750000 0.0385843 -0.1376079 0.000000 0.000000 0.000000
vn 0.9133558 -0.2879075 0.2879072
v 0.2750000 0.0544419 -0.1169419 0.000000 0.000000 0.000000
vn 1.0000000 0.0000000 0.0000000
v 0.2750000 0.0751079 -0.1010843 0.000000 0.000000 0.000000
vn 0.9133557 -0.1053815 0.3932889
v 0.2750000 0.0991739 -0.0911158 0.000000 0.000000 0.000000
vn 0.3737583 0.2400614 0.8959215
v 0.2500000 0.1573524 -0.0667593 1.000000 1.000000 1.000000
vn 0.3737586 0.4637628 0.8032613
v 0.2500000 0.1875000 -0.0792468 1.000000 1.000000 1.000000
vn 0.3737585 -0.6558601 0.6558599
v 0.2500000 0.0366117 -0.0991116 1.000000 1.000000 1.000000
vn 0.3737584 -0.8032612 0.4637631
v 0.2500000 0.0167468 -0.1250000 1.000000 1.000000 1.000000
vn 0.7101380 -0.6097360 0.3520314
v 0.2750000 0.0385843 -0.1376079 0.000000 0.000000 0.000000
vn 0.3737583 0.8959215 0.2400615
v 0.2500000 0.2457407 -0.1551476 1.000000 1.000000 1.000000
vn 0.3737580 0.9275263 0.0000000
v 0.2500000 0.2500000 -0.1875000 1.000000 1.000000 1.000000
vn 0.7101375 0.6800724 0.1822258
v 0.2750000 0.2213842 -0.1616739 0.000000 0.000000 0.000000
vn 0.3737591 0.6558600 -0.6558596
v 0.2500000 0.2133884 -0.2758884 1.000000 1.000000 1.000000
vn 0.3737586 0.4637620 -0.8032616
v 0.2500000 0.1875000 -0.2957532 0.886275 0.886275 0.886275
vn 0.7101375 0.6800724 -0.1822258
v 0.2750000 0.2213842 -0.2133261 0.000000 0.000000 0.000000
vn 0.3737583 0.8959215 -0.2400615
v 0.2500000 0.2457407 -0.2198524 1.000000 1.000000 1.000000
vn 0.7101384 0.6097357 -0.3520312
v 0.2750000 0.2114157 -0.2373921 0.000000 0.000000 0.000000
vn 0.3737589 0.8032616 -0.4637619
v 0.2500000 0.2332532 -0.2500000 1.000000 1.000000 1.000000
vn 0.3737582 -0.8959214 0.2400616
v 0.2500000 0.0042593 -0.1551476 1.000000 1.000000 1.000000
vn 0.7101378 -0.6800723 0.1822252
v 0.2750000 0.0286158 -0.1616739 0.000000 0.000000 0.000000
vn 0.3737582 -0.9275262 -0.0000000
v 0.2500000 0.0000000 -0.1875000 1.000000 1.000000 1.000000
vn 0.7101378 -0.7040628 0.0000000
v 0.2750000 0.0252157 -0.1875000 0.000000 0.000000 0.000000
vn 0.7101386 -0.3520310 -0.6097355
v 0.2750000 0.0751079 -0.2739157 0.000000 0.000000 0.000000
vn 0.3737585 -0.4637622 -0.8032617
v 0.2500000 0.0625000 -0.2957532 1.000000 1.000000 1.000000
vn 0.3737582 -0.2400611 -0.8959216
v 0.2500000 0.0926476 -0.3082407 1.000000 1.000000 1.000000
vn 0.3737587 -0.6558602 -0.6558597
v 0.2500000 0.0366117 -0.2758884 1.000000 1.000000 1.000000
vn 0.3737588 0.8032615 0.4637623
v 0.2500000 0.2332532 -0.1250000 1.000000 1.000000 1.000000
vn 0.7101384 0.6097357 0.3520312
v 0.2750000 0.2114157 -0.1376079 0.000000 0.000000 0.000000
vn 0.3737589 0.6558599 0.6558598
v 0.2500000 0.2133884 -0.0991116 1.000000 1.000000 1.000000
vn -0.7101386 0.6097355 -0.3520311
v 0.1500000 0.2114157 -0.2373921 1.000000 0.388235 0.396078
vn -0.3737590 0.8032616 -0.4637618
v 0.1750000 0.2332532 -0.2500000 1.000000 1.000000 1.000000
vn -0.3737593 0.6558599 -0.6558596
v 0.1750000 0.2133884 -0.2758884 1.000000 1.000000 1.000000
vn -0.3737585 0.8959214 0.2400615
v 0.1750000 0.2457407 -0.1551476 1.000000 1.000000 1.000000
vn -0.3737581 0.9275262 0.0000000
v 0.1750000 0.2500000 -0.1875000 1.000000 1.000000 1.000000
vn -0.3737588 -0.6558601 -0.6558596
v 0.1750000 0.0366117 -0.2758884 1.000000 1.000000 1.000000
vn -0.7101388 -0.3520309 -0.6097353
v 0.1500000 0.0751079 -0.2739157 1.000000 1.000000 1.000000
vn -0.3737586 -0.4637622 -0.8032616
v 0.1750000 0.0625000 -0.2957532 1.000000 1.000000 1.000000
vn -0.3737585 0.2400614 0.8959214
v 0.1750000 0.1573524 -0.0667593 1.000000 1.000000 1.000000
vn -0.3737587 0.4637627 0.8032612
v 0.1750000 0.1875000 -0.0792468 1.000000 1.000000 1.000000
vn 0.3737583 -0.2400614 0.8959215
v 0.2500000 0.0926476 -0.0667593 0.929412 0.929412 0.929412
vn 0.3737581 0.2400612 -0.8959216
v 0.2500000 0.1573524 -0.3082407 1.000000 1.000000 1.000000
vn 0.3737582 -0.8959215 -0.2400616
v 0.2500000 0.0042593 -0.2198524 0.000000 0.000000 0.000000
vn 0.7101378 -0.6800724 -0.1822252
v 0.2750000 0.0286158 -0.2133261 0.000000 0.000000 0.000000
vn -0.3737584 -0.8959214 0.2400616
v 0.1750000 0.0042593 -0.1551476 1.000000 1.000000 1.000000
vn -0.3737585 -0.8032611 0.4637631
v 0.1750000 0.0167468 -0.1250000 1.000000 1.000000 1.000000
vn -0.3737583 -0.2400611 -0.8959216
v 0.1750000 0.0926476 -0.3082407 1.000000 1.000000 1.000000
vn -0.3737580 -0.0000000 -0.9275263
v 0.1750000 0.1250000 -0.3125000 1.000000 1.000000 1.000000
vn 0.3737579 -0.0000000 -0.9275264
v 0.2500000 0.1250000 -0.3125000 1.000000 1.000000 1.000000
vn 0.3737584 -0.4637630 0.8032613
v 0.2500000 0.0625000 -0.0792468 0.109804 0.109804 0.109804
vn 0.7101382 -0.3520313 0.6097358
v 0.2750000 0.0751079 -0.1010843 0.000000 0.000000 0.000000
vn -0.3737586 -0.6558601 0.6558598
v 0.1750000 0.0366117 -0.0991116 1.000000 1.000000 1.000000
vn -0.7101378 0.6800722 -0.1822258
v 0.1500000 0.2213842 -0.2133261 1.000000 0.607843 0.615686
vn -0.3737584 0.8959214 -0.2400615
v 0.1750000 0.2457407 -0.2198524 1.000000 1.000000 1.000000
vn -0.7101381 -0.6097358 -0.3520314
v 0.1500000 0.0385843 -0.2373921 1.000000 1.000000 1.000000
vn -0.3737586 -0.8032613 -0.4637627
v 0.1750000 0.0167468 -0.2500000 1.000000 1.000000 1.000000
vn -0.3737584 -0.2400613 0.8959214
v 0.1750000 0.0926476 -0.0667593 1.000000 1.000000 1.000000
vn -0.3737585 -0.4637629 0.8032612
v 0.1750000 0.0625000 -0.0792468 1.000000 1.000000 1.000000
vn -0.7101384 -0.3520312 0.6097356
v 0.1500000 0.0751079 -0.1010843 1.000000 1.000000 1.000000
vn -0.3737583 0.2400612 -0.8959215
v 0.1750000 0.1573524 -0.3082407 1.000000 0.576471 0.584314
vn -0.3737584 -0.8959214 -0.2400616
v 0.1750000 0.0042593 -0.2198524 1.000000 1.000000 1.000000
vn -0.3737583 -0.9275262 0.0000000
v 0.1750000 0.0000000 -0.1875000 1.000000 1.000000 1.000000
vn -0.3737590 0.6558599 0.6558598
v 0.1750000 0.2133884 -0.0991116 1.000000 1.000000 1.000000
vn -0.3737589 0.8032614 0.4637622
v 0.1750000 0.2332532 -0.1250000 1.000000 1.000000 1.000000
vn -0.7101386 0.6097355 0.3520311
v 0.1500000 0.2114157 -0.1376079 1.000000 1.000000 1.000000
vn -0.7101380 -0.6800721 -0.1822251
v 0.1500000 0.0286158 -0.2133261 1.000000 1.000000 1.000000
vn -0.3737587 0.4637620 -0.8032616
v 0.1750000 0.1875000 -0.2957532 1.000000 1.000000 1.000000
vn -0.7101381 -0.6097358 0.3520314
v 0.1500000 0.0385843 -0.1376079 1.000000 1.000000 1.000000
vn 0.7101380 -0.6097360 -0.3520314
v 0.2750000 0.0385843 -0.2373921 0.000000 0.000000 0.000000
vn 0.3737585 -0.8032613 -0.4637627
v 0.2500000 0.0167468 -0.2500000 0.839216 0.839216 0.839216
vn -0.7101380 -0.6800721 0.1822251
v 0.1500000 0.0286158 -0.1616739 1.000000 1.000000 1.000000
vn -0.3737584 -0.0000001 0.9275261
v 0.1750000 0.1250000 -0.0625000 1.000000 1.000000 1.000000
vn -0.7101378 0.6800722 0.1822258
v 0.1500000 0.2213842 -0.1616739 1.000000 1.000000 1.000000
vn -0.7101380 -0.7040625 0.0000000
v 0.1500000 0.0252157 -0.1875000 1.000000 1.000000 1.000000
# 648 vertices, 0 vertices normals

f 3//3 2//2 1//1
f 2//2 3//3 4//4
f 7//7 6//6 5//5
f 6//6 7//7 8//8
f 9//9 7//7 5//5
f 7//7 9//9 10//10
f 10//10 9//9 2//2
f 10//10 2//2 4//4
f 7//7 11//11 8//8
f 11//11 7//7 10//10
f 9//9 6//6 12//12
f 6//6 9//9 5//5
f 2//2 12//12 1//1
f 12//12 2//2 9//9
f 10//10 3//3 11//11
f 3//3 10//10 4//4
f 14//14 1//1 13//13
f 1//1 14//14 3//3
f 8//8 15//15 6//6
f 15//15 8//8 16//16
f 12//12 15//15 17//17
f 15//15 12//12 6//6
f 8//8 18//18 16//16
f 18//18 8//8 11//11
f 11//11 14//14 18//18
f 14//14 11//11 3//3
f 1//1 17//17 13//13
f 17//17 1//1 12//12
f 21//21 20//20 19//19
f 20//20 21//21 22//22
f 25//25 24//24 23//23
f 24//24 25//25 26//26
f 21//21 28//28 27//27
f 28//28 21//21 19//19
f 29//29 24//24 26//26
f 24//24 29//29 30//30
f 27//27 30//30 29//29
f 30//30 27//27 28//28
f 19//19 30//30 28//28
f 30//30 19//19 24//24
f 24//24 19//19 20//20
f 24//24 20//20 23//23
f 26//26 27//27 29//29
f 27//27 26//26 21//21
f 21//21 26//26 25//25
f 21//21 25//25 22//22
f 33//33 32//32 31//31
f 32//32 33//33 34//34
f 34//34 33//33 35//35
f 37//37 32//32 36//36
f 32//32 37//37 31//31
f 38//38 37//37 36//36
f 37//37 38//38 39//39
f 39//39 38//38 40//40
f 38//38 32//32 34//34
f 32//32 38//38 36//36
f 43//43 42//42 41//41
f 42//42 43//43 44//44
f 47//47 46//46 45//45
f 46//46 47//47 48//48
f 43//43 50//50 49//49
f 50//50 43//43 41//41
f 51//51 46//46 48//48
f 46//46 51//51 52//52
f 49//49 52//52 51//51
f 52//52 49//49 50//50
f 41//41 52//52 50//50
f 52//52 41//41 46//46
f 46//46 41//41 42//42
f 46//46 42//42 45//45
f 48//48 49//49 51//51
f 49//49 48//48 43//43
f 43//43 48//48 47//47
f 43//43 47//47 44//44
f 54//54 13//13 53//53
f 13//13 54//54 14//14
f 57//57 56//56 55//55
f 56//56 57//57 58//58
f 58//58 57//57 54//54
f 58//58 54//54 53//53
f 16//16 56//56 15//15
f 56//56 16//16 55//55
f 17//17 16//16 15//15
f 16//16 17//17 18//18
f 18//18 17//17 13//13
f 18//18 13//13 14//14
f 17//17 56//56 58//58
f 56//56 17//17 15//15
f 16//16 57//57 55//55
f 57//57 16//16 18//18
f 18//18 54//54 57//57
f 54//54 18//18 14//14
f 13//13 58//58 53//53
f 58//58 13//13 17//17
f 20//20 25//25 23//23
f 25//25 20//20 22//22
f 42//42 47//47 45//45
f 47//47 42//42 44//44
f 35//35 38//38 34//34
f 38//38 35//35 40//40
f 37//37 33//33 31//31
f 33//33 37//37 39//39
f 39//39 35//35 33//33
f 35//35 39//39 40//40
f 61//61 60//60 59//59
f 60//60 61//61 62//62
f 61//61 64//64 63//63
f 64//64 61//61 59//59
f 67//67 66//66 65//65
f 66//66 67//67 68//68
f 60//60 70//70 69//69
f 70//70 60//60 62//62
f 69//69 67//67 65//65
f 67//67 69//69 70//70
f 63//63 66//66 68//68
f 66//66 63//63 64//64
f 68//68 61//61 63//63
f 61//61 68//68 62//62
f 62//62 68//68 67//67
f 62//62 67//67 70//70
f 73//73 72//72 71//71
f 72//72 73//73 74//74
f 76//76 16//16 75//75
f 16//16 76//76 71//71
f 71//71 76//76 77//77
f 71//71 77//77 73//73
f 72//72 78//78 8//8
f 78//78 72//72 79//79
f 79//79 72//72 80//80
f 80//80 72//72 74//74
f 78//78 16//16 8//8
f 16//16 78//78 75//75
f 78//78 76//76 75//75
f 76//76 78//78 79//79
f 77//77 74//74 73//73
f 74//74 77//77 80//80
f 79//79 77//77 76//76
f 77//77 79//79 80//80
f 83//83 82//82 81//81
f 82//82 83//83 84//84
f 85//85 83//83 81//81
f 83//83 85//85 86//86
f 88//88 85//85 87//87
f 85//85 88//88 86//86
f 88//88 82//82 84//84
f 82//82 88//88 87//87
f 91//91 90//90 89//89
f 90//90 91//91 92//92
f 95//95 94//94 93//93
f 94//94 95//95 89//89
f 89//89 95//95 91//91
f 97//97 94//94 96//96
f 94//94 97//97 93//93
f 90//90 97//97 96//96
f 97//97 90//90 98//98
f 98//98 90//90 92//92
f 90//90 94//94 89//89
f 94//94 90//90 96//96
f 97//97 95//95 93//93
f 95//95 97//97 98//98
f 98//98 91//91 95//95
f 91//91 98//98 92//92
f 101//101 100//100 99//99
f 100//100 101//101 102//102
f 104//104 6//6 103//103
f 6//6 104//104 99//99
f 99//99 104//104 105//105
f 99//99 105//105 101//101
f 100//100 106//106 15//15
f 106//106 100//100 107//107
f 107//107 100//100 108//108
f 108//108 100//100 102//102
f 15//15 103//103 6//6
f 103//103 15//15 106//106
f 106//106 104//104 103//103
f 104//104 106//106 107//107
f 105//105 102//102 101//101
f 102//102 105//105 108//108
f 104//104 108//108 105//105
f 108//108 104//104 107//107
f 111//111 110//110 109//109
f 110//110 111//111 112//112
f 113//113 111//111 109//109
f 111//111 113//113 114//114
f 116//116 113//113 115//115
f 113//113 116//116 114//114
f 116//116 110//110 112//112
f 110//110 116//116 115//115
f 3//3 2//2 1//1
f 2//2 3//3 4//4
f 7//7 6//6 5//5
f 6//6 7//7 8//8
f 9//9 7//7 5//5
f 7//7 9//9 10//10
f 10//10 9//9 2//2
f 10//10 2//2 4//4
f 7//7 11//11 8//8
f 11//11 7//7 10//10
f 9//9 6//6 12//12
f 6//6 9//9 5//5
f 2//2 12//12 1//1
f 12//12 2//2 9//9
f 10//10 3//3 11//11
f 3//3 10//10 4//4
f 14//14 1//1 13//13
f 1//1 14//14 3//3
f 8//8 15//15 6//6
f 15//15 8//8 16//16
f 12//12 15//15 17//17
f 15//15 12//12 6//6
f 8//8 18//18 16//16
f 18//18 8//8 11//11
f 11//11 14//14 18//18
f 14//14 11//11 3//3
f 1//1 17//17 13//13
f 17//17 1//1 12//12
f 21//21 20//20 19//19
f 20//20 21//21 22//22
f 25//25 24//24 23//23
f 24//24 25//25 26//26
f 21//21 28//28 27//27
f 28//28 21//21 19//19
f 29//29 24//24 26//26
f 24//24 29//29 30//30
f 27//27 30//30 29//29
f 30//30 27//27 28//28
f 19//19 30//30 28//28
f 30//30 19//19 24//24
f 24//24 19//19 20//20
f 24//24 20//20 23//23
f 26//26 27//27 29//29
f 27//27 26//26 21//21
f 21//21 26//26 25//25
f 21//21 25//25 22//22
f 33//33 32//32 31//31
f 32//32 33//33 34//34
f 34//34 33//33 35//35
f 37//37 32//32 36//36
f 32//32 37//37 31//31
f 38//38 37//37 36//36
f 37//37 38//38 39//39
f 39//39 38//38 40//40
f 38//38 32//32 34//34
f 32//32 38//38 36//36
f 43//43 42//42 41//41
f 42//42 43//43 44//44
f 47//47 46//46 45//45
f 46//46 47//47 48//48
f 43//43 50//50 49//49
f 50//50 43//43 41//41
f 51//51 46//46 48//48
f 46//46 51//51 52//52
f 49//49 52//52 51//51
f 52//52 49//49 50//50
f 41//41 52//52 50//50
f 52//52 41//41 46//46
f 46//46 41//41 42//42
f 46//46 42//42 45//45
f 48//48 49//49 51//51
f 49//49 48//48 43//43
f 43//43 48//48 47//47
f 43//43 47//47 44//44
f 54//54 13//13 53//53
f 13//13 54//54 14//14
f 57//57 56//56 55//55
f 56//56 57//57 58//58
f 58//58 57//57 54//54
f 58//58 54//54 53//53
f 16//16 56//56 15//15
f 56//56 16//16 55//55
f 17//17 16//16 15//15
f 16//16 17//17 18//18
f 18//18 17//17 13//13
f 18//18 13//13 14//14
f 17//17 56//56 58//58
f 56//56 17//17 15//15
f 16//16 57//57 55//55
f 57//57 16//16 18//18
f 18//18 54//54 57//57
f 54//54 18//18 14//14
f 13//13 58//58 53//53
f 58//58 13//13 17//17
f 20//20 25//25 23//23
f 25//25 20//20 22//22
f 42//42 47//47 45//45
f 47//47 42//42 44//44
f 35//35 38//38 34//34
f 38//38 35//35 40//40
f 37//37 33//33 31//31
f 33//33 37//37 39//39
f 39//39 35//35 33//33
f 35//35 39//39 40//40
f 61//61 60//60 59//59
f 60//60 61//61 62//62
f 61//61 64//64 63//63
f 64//64 61//61 59//59
f 67//67 66//66 65//65
f 66//66 67//67 68//68
f 60//60 70//70 69//69
f 70//70 60//60 62//62
f 69//69 67//67 65//65
f 67//67 69//69 70//70
f 63//63 66//66 68//68
f 66//66 63//63 64//64
f 68//68 61//61 63//63
f 61//61 68//68 62//62
f 62//62 68//68 67//67
f 62//62 67//67 70//70
f 73//73 72//72 71//71
f 72//72 73//73 74//74
f 76//76 16//16 75//75
f 16//16 76//76 71//71
f 71//71 76//76 77//77
f 71//71 77//77 73//73
f 72//72 78//78 8//8
f 78//78 72//72 79//79
f 79//79 72//72 80//80
f 80//80 72//72 74//74
f 78//78 16//16 8//8
f 16//16 78//78 75//75
f 78//78 76//76 75//75
f 76//76 78//78 79//79
f 77//77 74//74 73//73
f 74//74 77//77 80//80
f 79//79 77//77 76//76
f 77//77 79//79 80//80
f 83//83 82//82 81//81
f 82//82 83//83 84//84
f 85//85 83//83 81//81
f 83//83 85//85 86//86
f 88//88 85//85 87//87
f 85//85 88//88 86//86
f 88//88 82//82 84//84
f 82//82 88//88 87//87
f 91//91 90//90 89//89
f 90//90 91//91 92//92
f 95//95 94//94 93//93
f 94//94 95//95 89//89
f 89//89 95//95 91//91
f 97//97 94//94 96//96
f 94//94 97//97 93//93
f 90//90 97//97 96//96
f 97//97 90//90 98//98
f 98//98 90//90 92//92
f 90//90 94//94 89//89
f 94//94 90//90 96//96
f 97//97 95//95 93//93
f 95//95 97//97 98//98
f 98//98 91//91 95//95
f 91//91 98//98 92//92
f 101//101 100//100 99//99
f 100//100 101//101 102//102
f 104//104 6//6 103//103
f 6//6 104//104 99//99
f 99//99 104//104 105//105
f 99//99 105//105 101//101
f 100//100 106//106 15//15
f 106//106 100//100 107//107
f 107//107 100//100 108//108
f 108//108 100//100 102//102
f 15//15 103//103 6//6
f 103//103 15//15 106//106
f 106//106 104//104 103//103
f 104//104 106//106 107//107
f 105//105 102//102 101//101
f 102//102 105//105 108//108
f 104//104 108//108 105//105
f 108//108 104//104 107//107
f 111//111 110//110 109//109
f 110//110 111//111 112//112
f 113//113 111//111 109//109
f 111//111 113//113 114//114
f 116//116 113//113 115//115
f 113//113 116//116 114//114
f 116//116 110//110 112//112
f 110//110 116//116 115//115
f 119//119 118//118 117//117
f 118//118 119//119 120//120
f 118//118 120//120 121//121
f 121//121 120//120 122//122
f 121//121 122//122 123//123
f 123//123 122//122 124//124
f 123//123 124//124 125//125
f 125//125 124//124 126//126
f 125//125 126//126 127//127
f 127//127 126//126 128//128
f 127//127 128//128 129//129
f 129//129 128//128 130//130
f 129//129 130//130 131//131
f 131//131 130//130 132//132
f 131//131 132//132 133//133
f 133//133 132//132 134//134
f 133//133 134//134 135//135
f 135//135 134//134 136//136
f 136//136 134//134 137//137
f 136//136 137//137 138//138
f 136//136 138//138 139//139
f 139//139 138//138 140//140
f 143//143 142//142 141//141
f 142//142 143//143 144//144
f 147//147 146//146 145//145
f 146//146 147//147 148//148
f 145//145 149//149 147//147
f 149//149 145//145 150//150
f 152//152 141//141 151//151
f 141//141 152//152 143//143
f 152//152 154//154 153//153
f 154//154 152//152 151//151
f 144//144 155//155 142//142
f 155//155 144//144 156//156
f 148//148 154//154 146//146
f 154//154 148//148 153//153
f 159//159 158//158 157//157
f 159//159 160//160 158//158
f 152//152 160//160 159//159
f 152//152 161//161 160//160
f 153//153 161//161 152//152
f 153//153 162//162 161//161
f 153//153 163//163 162//162
f 163//163 153//153 148//148
f 148//148 164//164 163//163
f 147//147 164//164 148//148
f 147//147 165//165 164//164
f 149//149 165//165 147//147
f 149//149 166//166 165//165
f 149//149 167//167 166//166
f 149//149 168//168 167//167
f 168//168 149//149 169//169
f 149//149 170//170 169//169
f 170//170 149//149 171//171
f 171//171 149//149 172//172
f 172//172 149//149 173//173
f 173//173 149//149 156//156
f 173//173 156//156 174//174
f 174//174 156//156 144//144
f 174//174 144//144 175//175
f 143//143 175//175 144//144
f 175//175 143//143 176//176
f 176//176 143//143 177//177
f 177//177 143//143 152//152
f 177//177 152//152 178//178
f 178//178 152//152 159//159
f 178//178 159//159 179//179
f 179//179 159//159 180//180
f 155//155 149//149 150//150
f 149//149 155//155 156//156
f 170//170 182//182 181//181
f 182//182 170//170 171//171
f 184//184 166//166 183//183
f 166//166 184//184 185//185
f 188//188 187//187 186//186
f 187//187 188//188 175//175
f 179//179 189//189 178//178
f 189//189 179//179 190//190
f 193//193 192//192 191//191
f 192//192 193//193 194//194
f 197//197 196//196 195//195
f 196//196 197//197 198//198
f 200//200 157//157 199//199
f 157//157 200//200 201//201
f 202//202 199//199 160//160
f 199//199 202//202 200//200
f 204//204 186//186 203//203
f 186//186 204//204 188//188
f 171//171 205//205 182//182
f 205//205 171//171 172//172
f 172//172 203//203 205//205
f 203//203 172//172 204//204
f 169//169 181//181 79//79
f 181//181 169//169 170//170
f 207//207 134//134 206//206
f 134//134 207//207 208//208
f 186//186 210//210 209//209
f 210//210 186//186 187//187
f 212//212 211//211 135//135
f 211//211 212//212 213//213
f 215//215 119//119 214//214
f 119//119 215//215 120//120
f 216//216 169//169 79//79
f 169//169 216//216 168//168
f 180//180 190//190 179//179
f 190//190 180//180 217//217
f 218//218 198//198 197//197
f 198//198 218//218 219//219
f 195//195 221//221 220//220
f 221//221 195//195 184//184
f 178//178 194//194 193//193
f 194//194 178//178 189//189
f 195//195 185//185 184//184
f 185//185 195//195 196//196
f 139//139 213//213 212//212
f 213//213 139//139 222//222
f 223//223 201//201 222//222
f 201//201 223//223 224//224
f 183//183 226//226 225//225
f 226//226 183//183 166//166
f 184//184 227//227 221//221
f 227//227 184//184 183//183
f 229//229 206//206 228//228
f 206//206 229//229 207//207
f 135//135 231//231 230//230
f 231//231 135//135 211//211
f 118//118 233//233 232//232
f 233//233 118//118 234//234
f 140//140 222//222 139//139
f 222//222 140//140 223//223
f 235//235 224//224 223//223
f 224//224 235//235 217//217
f 218//218 237//237 236//236
f 237//237 218//218 197//197
f 239//239 122//122 238//238
f 122//122 239//239 240//240
f 230//230 236//236 241//241
f 236//236 230//230 231//231
f 208//208 137//137 134//134
f 137//137 208//208 242//242
f 123//123 221//221 227//227
f 221//221 123//123 243//243
f 197//197 220//220 237//237
f 220//220 197//197 195//195
f 213//213 202//202 211//211
f 202//202 213//213 200//200
f 208//208 190//190 242//242
f 190//190 208//208 189//189
f 235//235 140//140 138//138
f 140//140 235//235 223//223
f 218//218 244//244 219//219
f 244//244 218//218 245//245
f 187//187 229//229 210//210
f 229//229 187//187 192//192
f 191//191 187//187 175//175
f 187//187 191//191 192//192
f 225//225 168//168 216//216
f 168//168 225//225 226//226
f 159//159 217//217 180//180
f 217//217 159//159 224//224
f 182//182 214//214 181//181
f 214//214 182//182 215//215
f 243//243 220//220 221//221
f 220//220 243//243 246//246
f 194//194 208//208 207//207
f 208//208 194//194 189//189
f 79//79 232//232 216//216
f 232//232 79//79 247//247
f 245//245 160//160 244//244
f 160//160 245//245 202//202
f 117//117 232//232 247//247
f 232//232 117//117 118//118
f 181//181 247//247 79//79
f 247//247 181//181 214//214
f 238//238 120//120 215//215
f 120//120 238//238 122//122
f 216//216 233//233 225//225
f 233//233 216//216 232//232
f 201//201 159//159 157//157
f 159//159 201//201 224//224
f 245//245 236//236 231//231
f 236//236 245//245 218//218
f 225//225 227//227 183//183
f 227//227 225//225 233//233
f 203//203 209//209 239//239
f 209//209 203//203 186//186
f 202//202 231//231 211//211
f 231//231 202//202 245//245
f 210//210 248//248 209//209
f 248//248 210//210 128//128
f 246//246 237//237 220//220
f 237//237 246//246 249//249
f 234//234 227//227 233//233
f 227//227 234//234 123//123
f 242//242 217//217 235//235
f 217//217 242//242 190//190
f 209//209 240//240 239//239
f 240//240 209//209 248//248
f 242//242 138//138 137//137
f 138//138 242//242 235//235
f 192//192 207//207 229//229
f 207//207 192//192 194//194
f 241//241 237//237 249//249
f 237//237 241//241 236//236
f 214//214 117//117 247//247
f 117//117 214//214 119//119
f 222//222 200//200 213//213
f 200//200 222//222 201//201
f 205//205 239//239 238//238
f 239//239 205//205 203//203
f 229//229 128//128 210//210
f 128//128 229//229 228//228
f 205//205 215//215 182//182
f 215//215 205//205 238//238
f 145//145 155//155 150//150
f 155//155 145//145 146//146
f 155//155 146//146 142//142
f 142//142 146//146 154//154
f 142//142 154//154 141//141
f 141//141 154//154 151//151
f 252//252 251//251 250//250
f 251//251 252//252 253//253
f 251//251 253//253 254//254
f 254//254 253//253 255//255
f 254//254 255//255 256//256
f 256//256 255//255 257//257
f 256//256 257//257 258//258
f 258//258 257//257 259//259
f 258//258 259//259 260//260
f 260//260 259//259 261//261
f 260//260 261//261 262//262
f 262//262 261//261 263//263
f 262//262 263//263 264//264
f 264//264 263//263 265//265
f 264//264 265//265 266//266
f 266//266 265//265 267//267
f 266//266 267//267 268//268
f 268//268 267//267 269//269
f 269//269 267//267 270//270
f 269//269 270//270 271//271
f 269//269 271//271 272//272
f 272//272 271//271 273//273
f 276//276 275//275 274//274
f 275//275 276//276 277//277
f 280//280 279//279 278//278
f 279//279 280//280 281//281
f 284//284 283//283 282//282
f 283//283 284//284 285//285
f 287//287 278//278 286//286
f 278//278 287//287 280//280
f 282//282 275//275 284//284
f 275//275 282//282 274//274
f 285//285 288//288 283//283
f 288//288 285//285 289//289
f 287//287 288//288 289//289
f 288//288 287//287 286//286
f 281//281 276//276 279//279
f 276//276 281//281 277//277
f 292//292 291//291 290//290
f 293//293 291//291 292//292
f 293//293 287//287 291//291
f 294//294 287//287 293//293
f 294//294 280//280 287//287
f 295//295 280//280 294//294
f 296//296 280//280 295//295
f 280//280 296//296 281//281
f 297//297 281//281 296//296
f 297//297 277//277 281//281
f 298//298 277//277 297//297
f 298//298 275//275 277//277
f 299//299 275//275 298//298
f 300//300 275//275 299//299
f 301//301 275//275 300//300
f 275//275 301//301 302//302
f 303//303 275//275 302//302
f 275//275 303//303 304//304
f 275//275 304//304 305//305
f 275//275 305//305 306//306
f 275//275 306//306 284//284
f 284//284 306//306 307//307
f 284//284 307//307 285//285
f 285//285 307//307 308//308
f 308//308 289//289 285//285
f 289//289 308//308 309//309
f 289//289 309//309 310//310
f 289//289 310//310 287//287
f 287//287 310//310 311//311
f 287//287 311//311 291//291
f 291//291 311//311 312//312
f 291//291 312//312 313//313
f 301//301 315//315 314//314
f 315//315 301//301 300//300
f 317//317 305//305 316//316
f 305//305 317//317 318//318
f 321//321 320//320 319//319
f 320//320 321//321 296//296
f 292//292 322//322 293//293
f 322//322 292//292 323//323
f 326//326 325//325 324//324
f 325//325 326//326 327//327
f 330//330 329//329 328//328
f 329//329 330//330 331//331
f 333//333 313//313 332//332
f 313//313 333//333 334//334
f 335//335 332//332 311//311
f 332//332 335//335 333//333
f 337//337 319//319 336//336
f 319//319 337//337 321//321
f 300//300 338//338 315//315
f 338//338 300//300 299//299
f 299//299 336//336 338//338
f 336//336 299//299 337//337
f 302//302 314//314 339//339
f 314//314 302//302 301//301
f 341//341 267//267 340//340
f 267//267 341//341 342//342
f 319//319 344//344 343//343
f 344//344 319//319 320//320
f 346//346 345//345 268//268
f 345//345 346//346 347//347
f 349//349 252//252 348//348
f 252//252 349//349 253//253
f 350//350 302//302 339//339
f 302//302 350//350 303//303
f 290//290 323//323 292//292
f 323//323 290//290 351//351
f 352//352 331//331 330//330
f 331//331 352//352 353//353
f 328//328 355//355 354//354
f 355//355 328//328 317//317
f 293//293 327//327 326//326
f 327//327 293//293 322//322
f 328//328 318//318 317//317
f 318//318 328//328 329//329
f 272//272 347//347 346//346
f 347//347 272//272 356//356
f 357//357 334//334 356//356
f 334//334 357//357 76//76
f 316//316 359//359 358//358
f 359//359 316//316 305//305
f 317//317 360//360 355//355
f 360//360 317//317 316//316
f 362//362 340//340 361//361
f 340//340 362//362 341//341
f 268//268 364//364 363//363
f 364//364 268//268 345//345
f 251//251 366//366 365//365
f 366//366 251//251 367//367
f 273//273 356//356 272//272
f 356//356 273//273 357//357
f 368//368 76//76 357//357
f 76//76 368//368 351//351
f 352//352 370//370 369//369
f 370//370 352//352 330//330
f 372//372 255//255 371//371
f 255//255 372//372 373//373
f 363//363 369//369 374//374
f 369//369 363//363 364//364
f 342//342 270//270 267//267
f 270//270 342//342 375//375
f 256//256 355//355 360//360
f 355//355 256//256 376//376
f 330//330 354//354 370//370
f 354//354 330//330 328//328
f 347//347 335//335 345//345
f 335//335 347//347 333//333
f 342//342 323//323 375//375
f 323//323 342//342 322//322
f 368//368 273//273 271//271
f 273//273 368//368 357//357
f 352//352 377//377 353//353
f 377//377 352//352 378//378
f 320//320 362//362 344//344
f 362//362 320//320 325//325
f 324//324 320//320 296//296
f 320//320 324//324 325//325
f 358//358 303//303 350//350
f 303//303 358//358 359//359
f 291//291 351//351 290//290
f 351//351 291//291 76//76
f 315//315 348//348 314//314
f 348//348 315//315 349//349
f 376//376 354//354 355//355
f 354//354 376//376 379//379
f 327//327 342//342 341//341
f 342//342 327//327 322//322
f 339//339 365//365 350//350
f 365//365 339//339 380//380
f 378//378 311//311 377//377
f 311//311 378//378 335//335
f 250//250 365//365 380//380
f 365//365 250//250 251//251
f 314//314 380//380 339//339
f 380//380 314//314 348//348
f 371//371 253//253 349//349
f 253//253 371//371 255//255
f 350//350 366//366 358//358
f 366//366 350//350 365//365
f 334//334 291//291 313//313
f 291//291 334//334 76//76
f 378//378 369//369 364//364
f 369//369 378//378 352//352
f 358//358 360//360 316//316
f 360//360 358//358 366//366
f 336//336 343//343 372//372
f 343//343 336//336 319//319
f 335//335 364//364 345//345
f 364//364 335//335 378//378
f 344//344 381//381 343//343
f 381//381 344//344 261//261
f 379//379 370//370 354//354
f 370//370 379//379 382//382
f 367//367 360//360 366//366
f 360//360 367//367 256//256
f 375//375 351//351 368//368
f 351//351 375//375 323//323
f 343//343 373//373 372//372
f 373//373 343//343 381//381
f 375//375 271//271 270//270
f 271//271 375//375 368//368
f 325//325 341//341 362//362
f 341//341 325//325 327//327
f 374//374 370//370 382//382
f 370//370 374//374 369//369
f 348//348 250//250 380//380
f 250//250 348//348 252//252
f 356//356 333//333 347//347
f 333//333 356//356 334//334
f 338//338 372//372 371//371
f 372//372 338//338 336//336
f 362//362 261//261 344//344
f 261//261 362//362 361//361
f 338//338 349//349 315//315
f 349//349 338//338 371//371
f 282//282 276//276 274//274
f 276//276 282//282 283//283
f 276//276 283//283 279//279
f 279//279 283//283 288//288
f 279//279 288//288 278//278
f 278//278 288//288 286//286
f 385//385 384//384 383//383
f 384//384 385//385 386//386
f 389//389 388//388 387//387
f 390//390 388//388 389//389
f 390//390 391//391 388//388
f 392//392 391//391 390//390
f 392//392 393//393 391//391
f 394//394 393//393 392//392
f 394//394 395//395 393//393
f 395//395 394//394 396//396
f 397//397 395//395 396//396
f 397//397 398//398 395//395
f 399//399 398//398 397//397
f 399//399 400//400 398//398
f 401//401 400//400 399//399
f 402//402 400//400 401//401
f 403//403 400//400 402//402
f 400//400 403//403 404//404
f 405//405 400//400 404//404
f 400//400 405//405 406//406
f 400//400 406//406 407//407
f 400//400 407//407 408//408
f 400//400 408//408 409//409
f 409//409 408//408 410//410
f 409//409 410//410 383//383
f 383//383 410//410 411//411
f 412//412 383//383 411//411
f 383//383 412//412 385//385
f 385//385 412//412 413//413
f 385//385 413//413 391//391
f 391//391 413//413 414//414
f 391//391 414//414 388//388
f 388//388 414//414 415//415
f 388//388 415//415 416//416
f 386//386 391//391 417//417
f 391//391 386//386 385//385
f 400//400 418//418 398//398
f 418//418 400//400 419//419
f 420//420 393//393 395//395
f 393//393 420//420 421//421
f 421//421 391//391 393//393
f 391//391 421//421 417//417
f 418//418 395//395 398//398
f 395//395 418//418 420//420
f 384//384 409//409 383//383
f 409//409 384//384 422//422
f 400//400 422//422 419//419
f 422//422 400//400 409//409
f 425//425 424//424 423//423
f 424//424 425//425 426//426
f 424//424 426//426 427//427
f 427//427 426//426 428//428
f 427//427 428//428 429//429
f 429//429 428//428 430//430
f 430//430 428//428 431//431
f 430//430 431//431 432//432
f 430//430 432//432 433//433
f 433//433 432//432 434//434
f 433//433 434//434 435//435
f 435//435 434//434 436//436
f 435//435 436//436 437//437
f 437//437 436//436 438//438
f 437//437 438//438 439//439
f 439//439 438//438 440//440
f 439//439 440//440 441//441
f 441//441 440//440 442//442
f 441//441 442//442 443//443
f 443//443 442//442 444//444
f 443//443 444//444 445//445
f 445//445 444//444 446//446
f 416//416 448//448 447//447
f 448//448 416//416 415//415
f 450//450 390//390 449//449
f 390//390 450//450 451//451
f 454//454 453//453 452//452
f 453//453 454//454 411//411
f 406//406 455//455 407//407
f 455//455 406//406 456//456
f 459//459 458//458 457//457
f 458//458 459//459 460//460
f 463//463 462//462 461//461
f 462//462 463//463 464//464
f 466//466 403//403 465//465
f 403//403 466//466 467//467
f 468//468 465//465 401//401
f 465//465 468//468 466//466
f 470//470 452//452 469//469
f 452//452 470//470 454//454
f 415//415 471//471 448//448
f 471//471 415//415 414//414
f 414//414 469//469 471//471
f 469//469 414//414 470//470
f 388//388 447//447 472//472
f 447//447 388//388 416//416
f 474//474 429//429 473//473
f 429//429 474//474 475//475
f 452//452 477//477 476//476
f 477//477 452//452 453//453
f 479//479 478//478 428//428
f 478//478 479//479 480//480
f 482//482 445//445 481//481
f 445//445 482//482 443//443
f 483//483 388//388 472//472
f 388//388 483//483 387//387
f 405//405 456//456 406//406
f 456//456 405//405 484//484
f 485//485 464//464 463//463
f 464//464 485//485 486//486
f 461//461 488//488 487//487
f 488//488 461//461 450//450
f 407//407 460//460 459//459
f 460//460 407//407 455//455
f 461//461 451//451 450//450
f 451//451 461//461 462//462
f 425//425 480//480 479//479
f 480//480 425//425 489//489
f 490//490 467//467 489//489
f 467//467 490//490 104//104
f 449//449 492//492 491//491
f 492//492 449//449 390//390
f 450//450 493//493 488//488
f 493//493 450//450 449//449
f 495//495 473//473 494//494
f 473//473 495//495 474//474
f 428//428 497//497 496//496
f 497//497 428//428 478//478
f 444//444 499//499 498//498
f 499//499 444//444 500//500
f 423//423 489//489 425//425
f 489//489 423//423 490//490
f 501//501 104//104 490//490
f 104//104 501//501 484//484
f 485//485 503//503 502//502
f 503//503 485//485 463//463
f 505//505 441//441 504//504
f 441//441 505//505 506//506
f 496//496 502//502 507//507
f 502//502 496//496 497//497
f 475//475 427//427 429//429
f 427//427 475//475 508//508
f 440//440 488//488 493//493
f 488//488 440//440 509//509
f 463//463 487//487 503//503
f 487//487 463//463 461//461
f 480//480 468//468 478//478
f 468//468 480//480 466//466
f 475//475 456//456 508//508
f 456//456 475//475 455//455
f 501//501 423//423 424//424
f 423//423 501//501 490//490
f 485//485 510//510 486//486
f 510//510 485//485 511//511
f 453//453 495//495 477//477
f 495//495 453//453 458//458
f 457//457 453//453 411//411
f 453//453 457//457 458//458
f 491//491 387//387 483//483
f 387//387 491//491 492//492
f 404//404 484//484 405//405
f 484//484 404//404 104//104
f 448//448 481//481 447//447
f 481//481 448//448 482//482
f 509//509 487//487 488//488
f 487//487 509//509 512//512
f 460//460 475//475 474//474
f 475//475 460//460 455//455
f 472//472 498//498 483//483
f 498//498 472//472 513//513
f 511//511 401//401 510//510
f 401//401 511//511 468//468
f 446//446 498//498 513//513
f 498//498 446//446 444//444
f 447//447 513//513 472//472
f 513//513 447//447 481//481
f 504//504 443//443 482//482
f 443//443 504//504 441//441
f 483//483 499//499 491//491
f 499//499 483//483 498//498
f 467//467 404//404 403//403
f 404//404 467//467 104//104
f 511//511 502//502 497//497
f 502//502 511//511 485//485
f 491//491 493//493 449//449
f 493//493 491//491 499//499
f 469//469 476//476 505//505
f 476//476 469//469 452//452
f 468//468 497//497 478//478
f 497//497 468//468 511//511
f 477//477 514//514 476//476
f 514//514 477//477 435//435
f 512//512 503//503 487//487
f 503//503 512//512 515//515
f 500//500 493//493 499//499
f 493//493 500//500 440//440
f 508//508 484//484 501//501
f 484//484 508//508 456//456
f 476//476 506//506 505//505
f 506//506 476//476 514//514
f 508//508 424//424 427//427
f 424//424 508//508 501//501
f 458//458 474//474 495//495
f 474//474 458//458 460//460
f 507//507 503//503 515//515
f 503//503 507//507 502//502
f 481//481 446//446 513//513
f 446//446 481//481 445//445
f 489//489 466//466 480//480
f 466//466 489//489 467//467
f 471//471 505//505 504//504
f 505//505 471//471 469//469
f 495//495 435//435 477//477
f 435//435 495//495 494//494
f 471//471 482//482 448//448
f 482//482 471//471 504//504
f 422//422 418//418 419//419
f 418//418 422//422 384//384
f 418//418 384//384 420//420
f 420//420 384//384 386//386
f 420//420 386//386 421//421
f 421//421 386//386 417//417
f 518//518 517//517 516//516
f 517//517 518//518 519//519
f 517//517 519//519 520//520
f 520//520 519//519 521//521
f 520//520 521//521 522//522
f 522//522 521//521 523//523
f 523//523 521//521 524//524
f 523//523 524//524 525//525
f 523//523 525//525 526//526
f 526//526 525//525 527//527
f 526//526 527//527 528//528
f 528//528 527//527 529//529
f 528//528 529//529 530//530
f 530//530 529//529 531//531
f 530//530 531//531 532//532
f 532//532 531//531 533//533
f 532//532 533//533 534//534
f 534//534 533//533 535//535
f 534//534 535//535 536//536
f 536//536 535//535 537//537
f 536//536 537//537 538//538
f 538//538 537//537 539//539
f 542//542 541//541 540//540
f 541//541 542//542 543//543
f 546//546 545//545 544//544
f 545//545 546//546 547//547
f 550//550 549//549 548//548
f 549//549 550//550 551//551
f 551//551 541//541 549//549
f 541//541 551//551 540//540
f 554//554 553//553 552//552
f 553//553 554//554 555//555
f 553//553 548//548 552//552
f 548//548 553//553 550//550
f 558//558 557//557 556//556
f 558//558 559//559 557//557
f 541//541 559//559 558//558
f 541//541 560//560 559//559
f 543//543 560//560 541//541
f 543//543 561//561 560//560
f 544//544 561//561 543//543
f 561//561 544//544 562//562
f 544//544 563//563 562//562
f 545//545 563//563 544//544
f 545//545 564//564 563//563
f 554//554 564//564 545//545
f 554//554 565//565 564//564
f 554//554 566//566 565//565
f 554//554 567//567 566//566
f 567//567 554//554 568//568
f 554//554 569//569 568//568
f 569//569 554//554 570//570
f 570//570 554//554 571//571
f 571//571 554//554 572//572
f 572//572 554//554 552//552
f 572//572 552//552 573//573
f 573//573 552//552 548//548
f 573//573 548//548 574//574
f 548//548 575//575 574//574
f 575//575 548//548 549//549
f 575//575 549//549 576//576
f 576//576 549//549 541//541
f 576//576 541//541 577//577
f 577//577 541//541 558//558
f 577//577 558//558 578//578
f 578//578 558//558 579//579
f 554//554 547//547 555//555
f 547//547 554//554 545//545
f 543//543 546//546 544//544
f 546//546 543//543 542//542
f 556//556 581//581 580//580
f 581//581 556//556 557//557
f 583//583 577//577 582//582
f 577//577 583//583 584//584
f 587//587 586//586 585//585
f 586//586 587//587 562//562
f 566//566 588//588 565//565
f 588//588 566//566 589//589
f 592//592 591//591 590//590
f 591//591 592//592 593//593
f 596//596 595//595 594//594
f 595//595 596//596 597//597
f 599//599 569//569 598//598
f 569//569 599//599 600//600
f 601//601 598//598 571//571
f 598//598 601//601 599//599
f 603//603 585//585 602//602
f 585//585 603//603 587//587
f 557//557 604//604 581//581
f 604//604 557//557 559//559
f 559//559 602//602 604//604
f 602//602 559//559 603//603
f 558//558 580//580 107//107
f 580//580 558//558 556//556
f 606//606 522//522 605//605
f 522//522 606//606 607//607
f 585//585 609//609 608//608
f 609//609 585//585 586//586
f 611//611 610//610 521//521
f 610//610 611//611 612//612
f 614//614 538//538 613//613
f 538//538 614//614 536//536
f 615//615 558//558 107//107
f 558//558 615//615 579//579
f 567//567 589//589 566//566
f 589//589 567//567 616//616
f 617//617 597//597 596//596
f 597//597 617//617 618//618
f 594//594 620//620 619//619
f 620//620 594//594 583//583
f 565//565 593//593 592//592
f 593//593 565//565 588//588
f 594//594 584//584 583//583
f 584//584 594//594 595//595
f 518//518 612//612 611//611
f 612//612 518//518 621//621
f 622//622 600//600 621//621
f 600//600 622//622 623//623
f 582//582 625//625 624//624
f 625//625 582//582 577//577
f 583//583 626//626 620//620
f 626//626 583//583 582//582
f 628//628 605//605 627//627
f 605//605 628//628 606//606
f 521//521 630//630 629//629
f 630//630 521//521 610//610
f 537//537 632//632 631//631
f 632//632 537//537 633//633
f 516//516 621//621 518//518
f 621//621 516//516 622//622
f 634//634 623//623 622//622
f 623//623 634//634 616//616
f 617//617 636//636 635//635
f 636//636 617//617 596//596
f 638//638 534//534 637//637
f 534//534 638//638 639//639
f 629//629 635//635 640//640
f 635//635 629//629 630//630
f 607//607 520//520 522//522
f 520//520 607//607 641//641
f 533//533 620//620 626//626
f 620//620 533//533 642//642
f 596//596 619//619 636//636
f 619//619 596//596 594//594
f 612//612 601//601 610//610
f 601//601 612//612 599//599
f 607//607 589//589 641//641
f 589//589 607//607 588//588
f 634//634 516//516 517//517
f 516//516 634//634 622//622
f 617//617 643//643 618//618
f 643//643 617//617 644//644
f 586//586 628//628 609//609
f 628//628 586//586 591//591
f 590//590 586//586 562//562
f 586//586 590//590 591//591
f 624//624 579//579 615//615
f 579//579 624//624 625//625
f 568//568 616//616 567//567
f 616//616 568//568 623//623
f 581//581 613//613 580//580
f 613//613 581//581 614//614
f 642//642 619//619 620//620
f 619//619 642//642 645//645
f 593//593 607//607 606//606
f 607//607 593//593 588//588
f 107//107 631//631 615//615
f 631//631 107//107 646//646
f 644//644 571//571 643//643
f 571//571 644//644 601//601
f 539//539 631//631 646//646
f 631//631 539//539 537//537
f 580//580 646//646 107//107
f 646//646 580//580 613//613
f 637//637 536//536 614//614
f 536//536 637//637 534//534
f 615//615 632//632 624//624
f 632//632 615//615 631//631
f 600//600 568//568 569//569
f 568//568 600//600 623//623
f 644//644 635//635 630//630
f 635//635 644//644 617//617
f 624//624 626//626 582//582
f 626//626 624//624 632//632
f 602//602 608//608 638//638
f 608//608 602//602 585//585
f 601//601 630//630 610//610
f 630//630 601//601 644//644
f 609//609 647//647 608//608
f 647//647 609//609 528//528
f 645//645 636//636 619//619
f 636//636 645//645 648//648
f 633//633 626//626 632//632
f 626//626 633//633 533//533
f 641//641 616//616 634//634
f 616//616 641//641 589//589
f 608//608 639//639 638//638
f 639//639 608//608 647//647
f 641//641 517//517 520//520
f 517//517 641//641 634//634
f 591//591 606//606 628//628
f 606//606 591//591 593//593
f 640//640 636//636 648//648
f 636//636 640//640 635//635
f 613//613 539//539 646//646
f 539//539 613//613 538//538
f 621//621 599//599 612//612
f 599//599 621//621 600//600
f 604//604 638//638 637//637
f 638//638 604//604 602//602
f 628//628 528//528 609//609
f 528//528 628//628 627//627
f 604//604 614//614 581//581
f 614//614 604//604 637//637
f 547//547 553//553 555//555
f 553//553 547//547 546//546
f 553//553 546//546 550//550
f 550//550 546//546 542//542
f 550//550 542//542 551//551
f 551//551 542//542 540//540
# 1256 faces, 0 coords texture

# End of File
